<?xml version="1.0" encoding="UTF-8"?>
<svg id="icon-0" xmlns="http://www.w3.org/2000/svg" xmlns:svgjs="http://svgjs.dev/svgjs" version="1.1" viewBox="0 0 1309.2 340.5">
  <defs>
    <style>
      .cls-1 {
        fill: #ffc107;
      }

      .cls-1, .cls-2, .cls-3, .cls-4 {
        stroke-width: 0px;
      }

      .cls-2 {
        display: none;
        fill: none;
      }

      .cls-3 {
        fill: #007bff;
      }

      .cls-4 {
        fill: #e83e8c;
      }
    </style>
  </defs>
  <g id="tight-bounds">
    <rect class="cls-2" x="-225.7" y="-1080.2" width="1137.4" height="564"/>
  </g>
  <g>
    <g>
      <path class="cls-1" d="M1223.5,134.1c-1.7-.5-3.5-.7-5.6-.7-4.5,0-8.5,1.1-12.1,3.2-3.5,2.1-6.2,5.3-7.8,9.5l-1.8-11h-22.4v72.5h27.3v-32.2c0-5.7,1.3-10.1,3.7-13,2.5-2.9,6.6-4.4,12.3-4.4h8.8v-23s-.8-.4-2.5-.9h0Z"/>
      <path class="cls-1" d="M1304.4,170.4c-3.2-3.1-6.9-5.3-11.3-6.6-4.3-1.2-9.7-2.3-16.1-3.2-5.2-.8-8.9-1.6-11.3-2.3-2.3-.7-3.4-1.9-3.4-3.7,0-3.1,3.3-4.7,9.9-4.7s4.5.5,6.2,1.4c2.4,1.1,3.5,3,3.5,5.6h25.4c0-7.9-3.3-13.9-10.1-17.7-6.7-3.8-15-5.7-24.6-5.7s-19.6,1.9-26.3,5.6c-6.7,3.7-10.1,10.1-10.1,19s1.5,9.7,4.7,12.8c3.1,3.1,6.7,5.3,10.9,6.5,4.2,1.3,9.5,2.5,16,3.5,5.4.9,9.3,1.8,11.7,2.6,2.4.8,3.5,2.1,3.5,4,0,3.5-3.8,5.3-11.4,5.3s-5.5-.6-8.1-1.9c-2.5-1.2-3.8-3.4-3.9-6.5v-.5h-25.4c0,5.7,1.8,10.5,5.3,14.3,3.5,3.7,8.2,6.5,13.9,8.3,5.7,1.8,11.7,2.7,18.2,2.7,11.1,0,20.2-1.9,27.1-5.9,6.9-3.9,10.4-10.5,10.4-19.8s-1.6-10.1-4.8-13.3h0q0,.1,0,.1Z"/>
      <path class="cls-1" d="M1150.1,142.9c-7-6.2-17.2-9.3-30.4-9.3s-22.7,3.2-30,9.6c-7.2,6.4-10.9,15.8-10.9,28.3s3.7,22.2,11.1,28.5c7.4,6.3,17.8,9.4,31.3,9.4s22.6-2.5,29.2-7.4c6.7-4.9,10-11.8,10-20.6h-26.5c0,3.2-1.1,5.7-3.2,7.7-2.1,1.9-5.5,2.9-10.1,2.9s-8.7-1.3-11-4c-2.3-2.7-3.5-6.6-3.5-11.8h54.4v-4.7c0-12.8-3.5-22.4-10.5-28.6h0ZM1106.4,163.2c1-8.1,5.8-12.2,14.4-12.2s6.9,1.1,9,3.3c2.1,2.2,3.2,5.1,3.2,8.9h-26.6Z"/>
      <path class="cls-1" d="M932.4,189.3c-.7-1-1.1-2.3-1.1-3.9v-28.3c0-8.3-3.5-14.4-10.4-18.1-6.9-3.7-16-5.5-27-5.5s-21.6,2-28.1,6.1c-6.5,4-9.8,9.5-9.8,16.4s0,1.5.1,1.9h26.9v-.5c0-2.2,1-3.8,3.1-4.8s4.5-1.5,7.3-1.5,5.7.7,7.6,2.2c2,1.5,2.9,3.6,2.9,6.5v3.5c-11.5,0-20.9.7-28,2.1s-12.6,3.9-16.4,7.6c-3.8,3.7-5.7,9.1-5.7,16.2,0,13.6,8.5,20.3,25.6,20.3s10.8-.8,15.1-2.5c4.3-1.7,8.2-3.9,11.7-6.6,1.3,2.9,3.6,5.1,7.1,6.7,3.5,1.6,7.8,2.4,13.2,2.4s5.1-.2,7.3-.6c2.1-.4,3.7-.9,4.9-1.3,1.1-.4,1.9-.7,2.1-.9v-15.8h-4.9c-1.5,0-2.5-.5-3.3-1.5h0ZM904,182.3c0,2.9-1.3,5.2-4.1,7.1-2.7,1.9-5.8,2.9-9.4,2.9-6.2,0-9.3-2.3-9.3-6.9s1.9-5.1,5.5-6.8c3.7-1.7,9.5-2.5,17.2-2.5v6.2h0Z"/>
      <polygon class="cls-1" points="813.4 178 812.5 178 801.5 135.2 774.3 135.2 762.9 178 761.9 178 751 135.2 721.6 135.2 748.1 207.7 774.7 207.7 786.1 167.3 786.7 167.3 797.9 207.7 824.6 207.7 851.2 135.2 824.6 135.2 813.4 178"/>
      <polygon class="cls-1" points="1077.7 135.2 1045.8 135.2 1022.6 162.9 1022.6 108 995.3 108 995.3 207.7 1022.6 207.7 1022.6 192 1032.1 182.8 1047.3 207.7 1078.3 207.7 1050.9 164.5 1077.7 135.2"/>
      <rect class="cls-1" x="950.5" y="108.1" width="27.4" height="99.6"/>
    </g>
    <path class="cls-3" d="M399.2,121.6h-22.5c0,1-.7,2.7-2,5s-4.3,4.9-8.7,7.7c-3-.5-7-.8-11.9-.8-11.3,0-20.3,1.8-27.1,5.4-6.8,3.6-10.2,9.7-10.2,18.1s1.1,6.4,3.1,9.4c2.1,3,4.9,5.6,8.5,7.9-3.9,1-7.2,2.9-9.9,5.8-2.7,2.9-4,6.1-4,9.7s.7,4.9,1.9,7.1c1.3,2.2,3,4.1,5.2,5.6-3.3,1.5-6.1,3.7-8.2,6.5-2.2,2.9-3.3,6.1-3.3,9.7s.8,6.3,2.5,9c1.7,2.7,3.9,4.8,6.7,6.3,2.8,1.5,5.8,2.3,9.1,2.3h40.4c5.5,0,10.5-.9,15.2-2.9,4.7-1.9,8.4-4.7,11.1-8.5,2.7-3.7,4.1-8.2,4.1-13.5s-2.1-12.7-6.2-16.9-10.2-6.3-18.3-6.3h-24.7c-3.2,0-5.5-.4-6.7-1.2-1.3-.8-1.9-1.8-1.9-3.1,0-2.7,2.9-4,8.7-4h10.4c8.7,0,16-1.9,21.8-5.9,5.8-3.9,8.7-9.7,8.7-17.4s-.7-5.9-2.3-8.6c-1.5-2.7-3.6-5.1-6.3-7.1,5.6-1.5,9.7-3.7,12.6-6.7s4.2-7.3,4.2-12.9h0ZM343.2,207.7h21.4c2.1,0,3.9.6,5.2,1.8,1.4,1.2,2.1,2.9,2.1,4.9s-.7,3.8-2.1,5-3.1,1.9-5.1,1.9h-21.4c-2,0-3.7-.7-5.1-1.9-1.4-1.3-2.1-3-2.1-5.1s.7-3.7,2-4.9,3-1.7,5.1-1.7h0ZM361.6,163.7c-1.9,1.5-4.5,2.3-7.7,2.3s-5.8-.7-7.6-2.3c-1.8-1.5-2.7-3.7-2.7-6.8s.9-5.1,2.9-6.7c1.9-1.5,4.4-2.3,7.4-2.3s5.9.7,7.7,2.3c1.9,1.5,2.8,3.8,2.8,6.8s-.9,5.3-2.8,6.8h0Z"/>
    <path class="cls-3" d="M483.7,189.3c-.7-1-1.1-2.3-1.1-3.9v-28.3c0-8.3-3.5-14.4-10.4-18.1-6.9-3.7-16-5.5-27-5.5s-21.6,2-28.1,6.1c-6.5,4-9.8,9.5-9.8,16.4s0,1.5.1,1.9h26.9v-.5c0-2.2,1-3.8,3.1-4.8s4.5-1.5,7.3-1.5,5.7.7,7.6,2.2c2,1.5,2.9,3.6,2.9,6.5v3.5c-11.5,0-20.9.7-28,2.1s-12.6,3.9-16.4,7.6c-3.8,3.7-5.7,9.1-5.7,16.2,0,13.6,8.5,20.3,25.6,20.3s10.8-.8,15.1-2.5c4.3-1.7,8.2-3.9,11.7-6.6,1.3,2.9,3.6,5.1,7.1,6.7,3.5,1.6,7.8,2.4,13.2,2.4s5.1-.2,7.3-.6c2.1-.4,3.7-.9,4.9-1.3,1.1-.4,1.9-.7,2.1-.9v-15.8h-4.9c-1.5,0-2.5-.5-3.3-1.5h0ZM455.3,182.3c0,2.9-1.3,5.2-4.1,7.1-2.7,1.9-5.8,2.9-9.4,2.9-6.2,0-9.3-2.3-9.3-6.9s1.9-5.1,5.5-6.8c3.7-1.7,9.5-2.5,17.2-2.5v6.2h0Z"/>
    <path class="cls-3" d="M706.1,142.9c-7-6.2-17.2-9.3-30.4-9.3s-22.7,3.2-30,9.6c-7.2,6.4-10.9,15.8-10.9,28.3s3.7,22.2,11.1,28.5c7.4,6.3,17.8,9.4,31.3,9.4s22.6-2.5,29.2-7.4c6.7-4.9,10-11.8,10-20.6h-26.5c0,3.2-1.1,5.7-3.2,7.7s-5.5,2.9-10.1,2.9-8.7-1.3-11-4c-2.3-2.7-3.5-6.6-3.5-11.8h54.4v-4.7c0-12.8-3.5-22.4-10.5-28.6h0ZM662.4,163.2c1-8.1,5.8-12.2,14.4-12.2s6.9,1.1,9,3.3c2.1,2.2,3.2,5.1,3.2,8.9h-26.6,0Z"/>
    <path class="cls-3" d="M597.2,133.5c-4.9,0-9.5,1.1-14,3.3-4.4,2.3-8.1,5.3-10.9,9.1-3.7-8.3-11.1-12.5-22-12.5s-9.8,1.1-14.4,3.3c-4.5,2.3-8.1,5.3-10.9,9.1l-1.8-10.9h-22.4v72.5h27.3v-42.6c0-3.2,1-5.9,3-8.1s4.6-3.3,7.8-3.3,4.9.9,6.3,2.8c1.5,1.9,2.3,4.4,2.3,7.5v43.7h27.3v-42.6c0-3.2,1-5.9,3-8.1s4.6-3.3,7.8-3.3,4.9.9,6.3,2.8c1.5,1.9,2.3,4.4,2.3,7.5v43.7h27.3v-47c0-8.7-2.1-15.4-6.2-20.2-4.1-4.7-10.3-7.1-18.6-7.1h.2q0,.1,0,.1Z"/>
  </g>
  <g>
    <g>
      <path class="cls-4" d="M140.7,0C63,0,0,63,0,140.7s140.7,199.8,140.7,199.8c0,0,140.7-93,140.7-199.8S218.4,0,140.7,0M140.7,250c-60.4,0-109.3-49-109.3-109.3S80.3,31.3,140.7,31.3s109.3,49,109.3,109.3-49,109.3-109.3,109.3"/>
      <path class="cls-1" d="M170.2,95.3h-60c-15.7,0-28.6,12-29.9,27.3,0,0-5.3,47.3-5.3,48.4,0,8.3,6.8,15,15,15s11.3-3.6,13.6-8.7l14.3-21.9h44.6l14.3,21.9c2.4,5.1,7.6,8.7,13.6,8.7s15-6.7,15-15-5.3-48.4-5.3-48.4c-1.4-15.3-14.2-27.3-29.9-27.3"/>
    </g>
    <path class="cls-3" d="M172.9,110.3c2.8,0,5,2.2,5,5h0c0,2.8-2.2,5-5,5s-5-2.2-5-5,2.2-5,5-5"/>
    <polygon class="cls-3" points="125.3 130.3 115.2 130.3 115.2 140.3 105.2 140.3 105.2 130.3 95.2 130.3 95.2 120.3 105.2 120.3 105.2 110.3 115.2 110.3 115.2 120.3 125.3 120.3 125.3 130.3"/>
    <path class="cls-3" d="M162.9,130.3c-2.8,0-5-2.2-5-5s2.2-5,5-5,5,2.2,5,5-2.2,5-5,5"/>
    <path class="cls-3" d="M172.9,140.3c-2.8,0-5-2.2-5-5h0c0-2.8,2.2-5,5-5s5,2.2,5,5-2.2,5-5,5h0"/>
    <path class="cls-3" d="M182.9,130.3c-2.8,0-5-2.2-5-5s2.2-5,5-5,5,2.2,5,5-2.2,5-5,5"/>
  </g>
</svg>