<?xml version="1.0" encoding="UTF-8"?>
<svg id="icon-0" xmlns="http://www.w3.org/2000/svg" xmlns:svgjs="http://svgjs.dev/svgjs" version="1.1" viewBox="0 0 1496.7 742.2">
  <defs>
    <style>
      .cls-1 {
        fill: #ffc107;
      }

      .cls-1, .cls-2, .cls-3, .cls-4 {
        stroke-width: 0px;
      }

      .cls-2 {
        display: none;
        fill: none;
      }

      .cls-3 {
        fill: #007bff;
      }

      .cls-4 {
        fill: #e83e8c;
      }
    </style>
  </defs>
  <g id="tight-bounds">
    <rect class="cls-2" width="1496.8" height="742.2"/>
  </g>
  <path class="cls-3" d="M549.3,614c-12.9,0-20.1,6.1-21.6,18.3h39.9c0-5.6-1.6-10.1-4.8-13.4-3.2-3.3-7.7-4.9-13.5-4.9ZM547.6,587.9c19.9,0,35.1,4.7,45.6,14,10.5,9.3,15.7,23.6,15.7,42.8v7h-81.5c0,7.8,1.8,13.7,5.3,17.7,3.5,4,9,6,16.5,6s11.9-1.4,15.1-4.3c3.2-2.9,4.8-6.7,4.8-11.5h39.7c0,13.2-5,23.5-15,30.9-10,7.4-24.6,11.1-43.8,11.1s-35.8-4.7-46.9-14.1c-11.1-9.4-16.7-23.6-16.7-42.7s5.4-32.8,16.3-42.4c10.8-9.6,25.8-14.4,44.9-14.4ZM430,587.9c12.3,0,21.6,3.5,27.8,10.6,6.2,7.1,9.3,17.1,9.3,30.2v70.4h-40.9v-65.4c0-4.7-1.1-8.4-3.4-11.2-2.2-2.8-5.4-4.2-9.5-4.2s-8.7,1.6-11.7,4.9c-3,3.3-4.5,7.3-4.5,12.1v63.8h-40.9v-65.4c0-4.7-1.1-8.4-3.4-11.2-2.2-2.8-5.4-4.2-9.5-4.2s-8.7,1.6-11.7,4.9c-3,3.3-4.5,7.3-4.5,12.1v63.8h-40.9v-108.6h33.5l2.7,16.3c4.1-5.8,9.6-10.3,16.3-13.7,6.8-3.3,14-5,21.5-5,16.3,0,27.3,6.2,32.9,18.7,4.3-5.8,9.7-10.3,16.3-13.7,6.6-3.3,13.6-5,20.9-5ZM217.5,651.7c-11.7,0-20.3,1.3-25.8,3.8-5.5,2.6-8.3,6-8.3,10.2,0,6.9,4.7,10.3,14,10.3s10-1.4,14.1-4.3c4.1-2.9,6.1-6.4,6.1-10.7v-9.3ZM202.2,587.9c16.6,0,30.1,2.8,40.5,8.3,10.4,5.6,15.6,14.6,15.6,27.1v42.4c0,2.3.5,4.2,1.6,5.8,1.1,1.5,2.7,2.3,4.9,2.3h7.4v23.7c-.4.3-1.5.7-3.2,1.3-1.7.6-4.1,1.3-7.3,1.9-3.2.6-6.8.9-10.9.9-8,0-14.5-1.2-19.7-3.6-5.1-2.4-8.7-5.7-10.6-10-5.2,4.1-11,7.4-17.5,9.9-6.4,2.5-14,3.7-22.6,3.7-25.5,0-38.3-10.1-38.3-30.4s2.8-18.6,8.5-24.2c5.7-5.5,13.9-9.3,24.6-11.4,10.7-2.1,24.7-3.1,42-3.1v-5.3c0-4.3-1.5-7.5-4.4-9.7-2.9-2.2-6.7-3.3-11.4-3.3s-7.9.8-11,2.3c-3.1,1.5-4.6,3.9-4.6,7.2v.8h-40.3c-.1-.7-.2-1.6-.2-2.9,0-10.3,4.9-18.4,14.7-24.5,9.8-6,23.9-9.1,42.1-9.1ZM49.6,699c-3.2,0-5.7.9-7.7,2.6-2,1.7-3,4.1-3,7.3s1,5.7,3.1,7.6,4.6,2.9,7.6,2.9h32.1c3,0,5.6-.9,7.7-2.8,2.1-1.9,3.2-4.4,3.2-7.5s-1-5.6-3.1-7.4c-2.1-1.8-4.7-2.7-7.8-2.7h-32.1ZM65.4,609.3c-4.5,0-8.2,1.2-11.1,3.5-2.9,2.3-4.3,5.7-4.3,10.1s1.3,7.9,4,10.2c2.7,2.3,6.5,3.4,11.4,3.4s8.8-1.1,11.6-3.4c2.8-2.2,4.2-5.6,4.2-10.2s-1.4-7.9-4.2-10.2c-2.8-2.3-6.7-3.4-11.6-3.4ZM133.5,570c0,8.4-2.1,14.8-6.3,19.3-4.2,4.5-10.5,7.9-18.8,10.1,4,3,7.1,6.5,9.4,10.6,2.2,4.1,3.4,8.4,3.4,12.9,0,11.5-4.3,20.2-13,26.1-8.7,5.9-19.6,8.8-32.6,8.8h-15.6c-8.6,0-13,2-13,6s1,3.5,2.9,4.6c1.9,1.2,5.3,1.8,10.1,1.8h37c12.1,0,21.2,3.2,27.4,9.5,6.2,6.3,9.3,14.7,9.3,25.3s-2.1,14.5-6.2,20.2c-4.1,5.6-9.7,9.9-16.7,12.8s-14.6,4.3-22.8,4.3H27.4c-4.9,0-9.5-1.2-13.7-3.5-4.2-2.3-7.5-5.5-10-9.5-2.5-4.1-3.7-8.6-3.7-13.5s1.6-10.2,4.9-14.5c3.3-4.3,7.4-7.6,12.3-9.8-3.3-2.3-5.9-5.1-7.8-8.4-1.9-3.3-2.9-6.9-2.9-10.7s2-10.2,6-14.5c4-4.3,8.9-7.2,14.8-8.7-5.3-3.4-9.6-7.4-12.8-11.8-3.2-4.4-4.7-9.1-4.7-14.1,0-12.6,5.1-21.6,15.3-27.1,10.2-5.4,23.7-8.1,40.6-8.1s13.4.4,17.9,1.2c6.7-4.2,11.1-8.1,13.1-11.6,2-3.5,3-6,3-7.5h33.7Z"/>
  <path class="cls-1" d="M1442,585.3c14.5,0,26.8,2.8,36.9,8.5,10.1,5.7,15.1,14.5,15.1,26.5h-38.1c0-4-1.8-6.8-5.3-8.4-2.5-1.4-5.6-2.1-9.3-2.1-9.9,0-14.8,2.3-14.8,7s1.7,4.5,5.1,5.6c3.4,1.1,9.1,2.3,16.9,3.5,9.6,1.4,17.6,3,24.1,4.8,6.4,1.9,12.1,5.2,16.9,9.9,4.8,4.7,7.2,11.4,7.2,19.9,0,13.8-5.2,23.7-15.6,29.6-10.3,5.9-23.9,8.8-40.6,8.8s-18.7-1.3-27.2-4c-8.5-2.7-15.4-6.8-20.8-12.4-5.3-5.6-8-12.8-8-21.4h38.1v.8c.1,4.7,2.1,7.9,5.8,9.7,3.8,1.9,7.8,2.8,12.1,2.8,11.4,0,17.1-2.7,17.1-8s-1.8-4.7-5.3-6c-3.6-1.2-9.4-2.5-17.5-3.9-9.7-1.6-17.7-3.4-24-5.3-6.2-1.9-11.7-5.2-16.3-9.8-4.7-4.6-7-11-7-19.2,0-13.3,5-22.8,15.1-28.4,10.1-5.6,23.2-8.4,39.4-8.4Z"/>
  <path class="cls-1" d="M1359.9,585.1c3.2,0,6,.4,8.4,1.1,2.5.8,3.7,1.2,3.7,1.4v34.4h-13.2c-8.5,0-14.6,2.2-18.4,6.6-3.8,4.4-5.6,10.9-5.6,19.5v48.4h-40.9v-108.6h33.5l2.7,16.5c2.5-6.3,6.4-11.1,11.7-14.3,5.3-3.2,11.4-4.8,18.1-4.8Z"/>
  <polygon class="cls-1" points="1067.3 629.3 1102.1 587.7 1149.8 587.7 1109.7 631.6 1150.8 696.4 1104.3 696.4 1081.5 659.1 1067.3 672.9 1067.3 696.4 1026.4 696.4 1026.4 547 1067.3 547 1067.3 629.3"/>
  <rect class="cls-1" x="959.3" y="547.2" width="41" height="149.2"/>
  <polygon class="cls-1" points="770.7 696.4 730.8 696.4 713.9 635.9 713.1 635.9 696 696.4 656.1 696.4 616.4 587.7 660.4 587.7 676.9 651.9 678.3 651.9 695.4 587.7 736.1 587.7 752.6 651.9 754 651.9 770.7 587.7 810.6 587.7 770.7 696.4"/>
  <path class="cls-1" d="M937.1,671.1c-2.2,0-3.8-.8-4.9-2.3-1.1-1.5-1.6-3.4-1.6-5.8v-42.4c0-12.5-5.2-21.5-15.6-27.1-10.4-5.5-23.9-8.3-40.5-8.3s-32.3,3-42.1,9.1c-9.8,6-14.7,14.2-14.7,24.5s0,2.2.2,2.9h40.3v-.8c0-3.3,1.5-5.7,4.6-7.2,3.1-1.5,6.8-2.3,11-2.3s8.5,1.1,11.4,3.3c3,2.2,4.4,5.4,4.4,9.7v5.3c-17.3,0-31.3,1-42,3.1-10.7,2.1-18.9,5.9-24.6,11.4-5.7,5.6-8.5,13.6-8.5,24.2,0,20.3,12.8,30.4,38.3,30.4s16.2-1.2,22.6-3.7c6.4-2.5,12.3-5.8,17.5-9.9,1.9,4.3,5.4,7.6,10.6,10,5.2,2.4,11.7,3.6,19.7,3.6s7.8-.3,10.9-.9c3.2-.6,5.6-1.3,7.3-1.9,1.7-.6,2.8-1,3.2-1.3v-23.7h-7.4ZM889.6,658.3c0,4.2-2,7.8-6.1,10.7-4,2.9-8.7,4.3-14.1,4.3-9.3,0-14-3.4-14-10.3s2.8-7.7,8.3-10.2c5.6-2.5,14.2-3.8,25.8-3.8v9.3Z"/>
  <path class="cls-1" d="M1274.1,642.1c0-19.2-5.2-33.5-15.7-42.8-10.5-9.3-25.7-14-45.6-14s-34,4.8-44.9,14.4c-10.8,9.6-16.3,23.7-16.3,42.4s5.6,33.3,16.7,42.7c11.1,9.4,26.7,14.1,46.9,14.1s33.8-3.7,43.8-11.1c10-7.4,15-17.7,15-30.9h-39.7c0,4.8-1.6,8.6-4.8,11.5-3.2,2.9-8.3,4.3-15.1,4.3s-13.1-2-16.5-6c-3.5-4-5.3-9.9-5.3-17.7h81.5v-7ZM1192.8,629.7c1.5-12.2,8.7-18.3,21.6-18.3s10.3,1.6,13.5,4.9c3.2,3.3,4.8,7.8,4.8,13.4h-39.9Z"/>
  <g>
    <g>
      <path class="cls-4" d="M748.4,370.2c-89.4,0-161.9-72.5-161.9-161.9s72.5-161.9,161.9-161.9,161.9,72.5,161.9,161.9-72.5,161.9-161.9,161.9M748.4,0c-115.1,0-208.3,93.3-208.3,208.3s208.3,295.9,208.3,295.9c0,0,208.3-137.7,208.3-295.9S863.5,0,748.4,0"/>
      <path class="cls-1" d="M792.3,141.1h-88.9c-23.2,0-42.3,17.8-44.3,40.5,0,0-7.9,70-7.9,71.7,0,12.3,10,22.2,22.2,22.2s16.7-5.3,20.2-12.9l21.2-32.5h66.1l21.2,32.5c3.5,7.6,11.2,12.9,20.2,12.9s22.2-9.9,22.2-22.2-7.9-71.7-7.9-71.7c-2-22.7-21.1-40.5-44.3-40.5"/>
    </g>
    <path class="cls-3" d="M810.9,193c-4.1,0-7.4-3.3-7.4-7.4,0-4.1,3.3-7.4,7.4-7.4s7.4,3.3,7.4,7.4c0,4.1-3.3,7.4-7.4,7.4"/>
    <path class="cls-3" d="M796.1,207.8c-2,0-3.8-.8-5.2-2.2-1.4-1.4-2.2-3.3-2.2-5.2,0-4.1,3.3-7.4,7.4-7.4s7.4,3.3,7.4,7.4c0,2-.8,3.8-2.2,5.2-1.4,1.4-3.3,2.2-5.2,2.2"/>
    <path class="cls-3" d="M781.3,193c-4.1,0-7.4-3.3-7.4-7.4s3.3-7.4,7.4-7.4,7.4,3.3,7.4,7.4-3.3,7.4-7.4,7.4"/>
    <polygon class="cls-3" points="725.6 193 710.8 193 710.8 207.8 695.9 207.8 695.9 193 681.1 193 681.1 178.2 695.9 178.2 695.9 163.3 710.8 163.3 710.8 178.2 725.6 178.2 725.6 193"/>
    <path class="cls-3" d="M796.1,163.3c2,0,3.8.8,5.2,2.2,1.4,1.4,2.2,3.3,2.2,5.2,0,4.1-3.3,7.4-7.4,7.4s-7.4-3.3-7.4-7.4,3.3-7.4,7.4-7.4"/>
  </g>
</svg>