<?xml version="1.0" encoding="UTF-8"?>
<svg id="icon-0" xmlns="http://www.w3.org/2000/svg" xmlns:svgjs="http://svgjs.dev/svgjs" version="1.1" viewBox="0 0 2000 1500">
  <defs>
    <style>
      .cls-1 {
        fill: #ffc107;
      }

      .cls-1, .cls-2, .cls-3, .cls-4, .cls-5 {
        stroke-width: 0px;
      }

      .cls-2 {
        display: none;
        fill: none;
      }

      .cls-3 {
        fill: #007bff;
      }

      .cls-4 {
        fill: #212121;
      }

      .cls-5 {
        fill: #e83e8c;
      }
    </style>
  </defs>
  <rect class="cls-4" width="2000" height="1500"/>
  <g id="tight-bounds">
    <g>
      <g>
        <path class="cls-1" d="M1619,966c-2.5-.7-5.3-1.1-8.4-1.1-6.7,0-12.8,1.6-18.1,4.8-5.3,3.2-9.3,8-11.7,14.3l-2.7-16.5h-33.5v108.6h40.9v-48.3c0-8.6,1.9-15.2,5.6-19.5,3.8-4.4,9.9-6.6,18.4-6.6h13.2v-34.4c0-.1-1.2-.6-3.7-1.4Z"/>
        <path class="cls-1" d="M1740.2,1020.4c-4.8-4.7-10.4-8-16.9-9.9-6.4-1.8-14.5-3.4-24.1-4.8-7.8-1.2-13.4-2.4-16.9-3.5-3.4-1.1-5.1-2.9-5.1-5.6,0-4.7,4.9-7,14.8-7s6.8.7,9.3,2.1c3.6,1.6,5.3,4.5,5.3,8.4h38.1c0-11.9-5-20.8-15.1-26.5-10.1-5.7-22.4-8.5-36.9-8.5s-29.3,2.8-39.4,8.4c-10.1,5.6-15.1,15.1-15.1,28.4s2.3,14.6,7,19.2c4.7,4.6,10.1,7.9,16.3,9.8,6.3,1.9,14.3,3.7,24,5.3,8.1,1.4,13.9,2.7,17.5,3.9s5.3,3.2,5.3,6c0,5.3-5.7,8-17.1,8s-8.3-.9-12.1-2.8c-3.8-1.8-5.7-5.1-5.8-9.8v-.8h-38.1c0,8.6,2.7,15.8,8,21.4,5.3,5.6,12.3,9.8,20.8,12.4,8.5,2.7,17.6,4,27.2,4,16.7,0,30.3-2.9,40.6-8.8,10.4-5.9,15.6-15.8,15.6-29.6s-2.4-15.1-7.2-19.9Z"/>
        <path class="cls-1" d="M1509.1,979.1c-10.5-9.3-25.7-14-45.6-14s-34,4.8-44.9,14.4c-10.8,9.6-16.3,23.7-16.3,42.4s5.6,33.3,16.7,42.7c11.1,9.4,26.7,14.1,46.9,14.1s33.8-3.7,43.8-11.1,15-17.7,15-30.9h-39.7c0,4.8-1.6,8.6-4.8,11.5-3.2,2.9-8.3,4.3-15.1,4.3s-13.1-2-16.5-6c-3.5-4-5.3-9.9-5.3-17.7h81.5v-7c0-19.2-5.2-33.5-15.7-42.8ZM1443.5,1009.6c1.5-12.2,8.7-18.3,21.6-18.3s10.3,1.6,13.5,4.9c3.2,3.3,4.8,7.7,4.8,13.4h-39.9Z"/>
        <path class="cls-1" d="M1182.9,1048.7c-1.1-1.5-1.6-3.4-1.6-5.8v-42.4c0-12.5-5.2-21.5-15.6-27.1-10.4-5.5-23.9-8.3-40.5-8.3s-32.3,3-42.1,9.1c-9.8,6-14.7,14.2-14.7,24.5s0,2.2.2,2.9h40.3v-.8c0-3.3,1.5-5.7,4.6-7.2,3.1-1.5,6.8-2.3,11-2.3s8.5,1.1,11.4,3.3c3,2.2,4.4,5.4,4.4,9.7v5.3c-17.3,0-31.3,1-42,3.1-10.7,2.1-18.9,5.9-24.6,11.4-5.7,5.6-8.5,13.6-8.5,24.2,0,20.3,12.8,30.4,38.3,30.4s16.2-1.2,22.6-3.7c6.4-2.5,12.3-5.8,17.5-9.9,1.9,4.3,5.4,7.6,10.6,10,5.2,2.4,11.7,3.6,19.7,3.6s7.7-.3,10.9-.9c3.2-.6,5.6-1.3,7.3-1.9,1.7-.6,2.8-1,3.2-1.3v-23.7h-7.4c-2.2,0-3.8-.8-4.9-2.3ZM1140.3,1038.2c0,4.3-2,7.8-6.1,10.7-4,2.9-8.7,4.3-14.1,4.3-9.3,0-14-3.4-14-10.3s2.8-7.7,8.3-10.2c5.6-2.5,14.2-3.8,25.8-3.8v9.3Z"/>
        <polygon class="cls-1" points="1004.7 1031.8 1003.3 1031.8 986.8 967.6 946.1 967.6 929 1031.8 927.6 1031.8 911.1 967.6 867.1 967.6 906.8 1076.2 946.7 1076.2 963.8 1015.7 964.6 1015.7 981.5 1076.2 1021.4 1076.2 1061.3 967.6 1021.4 967.6 1004.7 1031.8"/>
        <polygon class="cls-1" points="1400.5 967.6 1352.8 967.6 1318 1009.2 1318 926.9 1277.1 926.9 1277.1 1076.2 1318 1076.2 1318 1052.8 1332.2 1039 1355.1 1076.2 1401.6 1076.2 1360.4 1011.4 1400.5 967.6"/>
        <rect class="cls-1" x="1210" y="927.1" width="41" height="149.2"/>
      </g>
      <g>
        <path class="cls-5" d="M999.1,377.2c-115,0-208.3,93.3-208.3,208.3s208.3,295.9,208.3,295.9c0,0,208.3-137.7,208.3-295.9s-93.2-208.3-208.3-208.3M999.1,747.4c-89.4,0-161.9-72.5-161.9-161.9s72.5-161.9,161.9-161.9,161.9,72.5,161.9,161.9-72.5,161.9-161.9,161.9"/>
        <path class="cls-1" d="M1042.9,518.4h-88.9c-23.2,0-42.3,17.8-44.3,40.5,0,0-7.9,70-7.9,71.7,0,12.3,10,22.2,22.2,22.2s16.7-5.3,20.2-12.9l21.2-32.5h66.1l21.2,32.5c3.5,7.6,11.2,12.9,20.2,12.9s22.2-9.9,22.2-22.2-7.9-71.7-7.9-71.7c-2-22.7-21.1-40.5-44.3-40.5"/>
      </g>
    </g>
    <rect class="cls-2" x="250.7" y="377.2" width="1496.8" height="742.2"/>
  </g>
  <path class="cls-3" d="M384.3,947.2h-33.7c0,1.5-1,4-3,7.5-2,3.5-6.4,7.4-13.1,11.6-4.5-.8-10.5-1.2-17.9-1.2-16.9,0-30.4,2.7-40.6,8.1-10.2,5.4-15.3,14.5-15.3,27.1s1.6,9.6,4.7,14.1c3.2,4.5,7.4,8.4,12.8,11.9-5.9,1.5-10.8,4.4-14.8,8.7-4,4.3-6,9.2-6,14.5s1,7.4,2.9,10.7c1.9,3.3,4.5,6.1,7.8,8.4-4.9,2.2-9.1,5.5-12.3,9.8-3.3,4.3-4.9,9.1-4.9,14.5s1.2,9.4,3.7,13.5c2.5,4,5.8,7.2,10,9.5,4.2,2.3,8.7,3.5,13.7,3.5h60.5c8.2,0,15.8-1.4,22.8-4.3s12.6-7.1,16.7-12.8c4.1-5.6,6.2-12.3,6.2-20.2s-3.1-19-9.3-25.3-15.3-9.5-27.4-9.5h-37c-4.8,0-8.2-.6-10.1-1.8-1.9-1.2-2.9-2.7-2.9-4.6,0-4,4.3-6,13-6h15.6c13,0,23.9-2.9,32.6-8.8,8.7-5.9,13-14.6,13-26.1s-1.1-8.8-3.4-12.9c-2.3-4-5.4-7.6-9.4-10.6,8.4-2.2,14.6-5.6,18.8-10.1,4.2-4.5,6.3-11,6.3-19.3ZM300.3,1076.2h32.1c3.2,0,5.8.9,7.8,2.7,2.1,1.8,3.1,4.3,3.1,7.4s-1.1,5.7-3.2,7.5c-2.1,1.8-4.7,2.8-7.7,2.8h-32.1c-3,0-5.6-1-7.6-2.9-2.1-1.9-3.1-4.5-3.1-7.6s1-5.6,3-7.3c2-1.7,4.5-2.6,7.7-2.6ZM327.8,1010.3c-2.8,2.3-6.7,3.4-11.6,3.4s-8.7-1.1-11.4-3.4c-2.7-2.2-4-5.6-4-10.2s1.4-7.7,4.3-10.1c2.9-2.3,6.6-3.5,11.1-3.5s8.8,1.1,11.6,3.4c2.8,2.3,4.2,5.7,4.2,10.2s-1.4,7.9-4.2,10.2Z"/>
  <path class="cls-3" d="M510.8,1048.7c-1.1-1.5-1.6-3.4-1.6-5.8v-42.4c0-12.5-5.2-21.5-15.6-27.1-10.4-5.5-23.9-8.3-40.5-8.3s-32.3,3-42.1,9.1c-9.8,6-14.7,14.2-14.7,24.5s0,2.2.2,2.9h40.3v-.8c0-3.3,1.5-5.7,4.6-7.2,3.1-1.5,6.8-2.3,11-2.3s8.5,1.1,11.4,3.3c3,2.2,4.4,5.4,4.4,9.7v5.3c-17.3,0-31.3,1-42,3.1-10.7,2.1-18.9,5.9-24.6,11.4-5.7,5.6-8.5,13.6-8.5,24.2,0,20.3,12.8,30.4,38.3,30.4s16.2-1.2,22.6-3.7c6.4-2.5,12.3-5.8,17.5-9.9,1.9,4.3,5.4,7.6,10.6,10,5.2,2.4,11.7,3.6,19.7,3.6s7.7-.3,10.9-.9c3.2-.6,5.6-1.3,7.3-1.9,1.7-.6,2.8-1,3.2-1.3v-23.7h-7.4c-2.2,0-3.8-.8-4.9-2.3ZM468.2,1038.2c0,4.3-2,7.8-6.1,10.7-4,2.9-8.7,4.3-14.1,4.3-9.3,0-14-3.4-14-10.3s2.8-7.7,8.3-10.2c5.6-2.5,14.2-3.8,25.8-3.8v9.3Z"/>
  <path class="cls-3" d="M844,979.1c-10.5-9.3-25.7-14-45.6-14s-34,4.8-44.9,14.4c-10.8,9.6-16.3,23.7-16.3,42.4s5.6,33.3,16.7,42.7c11.1,9.4,26.7,14.1,46.9,14.1s33.8-3.7,43.8-11.1,15-17.7,15-30.9h-39.7c0,4.8-1.6,8.6-4.8,11.5-3.2,2.9-8.3,4.3-15.1,4.3s-13.1-2-16.5-6c-3.5-4-5.3-9.9-5.3-17.7h81.5v-7c0-19.2-5.2-33.5-15.7-42.8ZM778.4,1009.6c1.5-12.2,8.7-18.3,21.6-18.3s10.3,1.6,13.5,4.9c3.2,3.3,4.8,7.7,4.8,13.4h-39.9Z"/>
  <path class="cls-3" d="M680.8,965.1c-7.3,0-14.3,1.7-20.9,5-6.6,3.4-12.1,7.9-16.3,13.7-5.6-12.5-16.6-18.7-32.9-18.7s-14.7,1.7-21.5,5c-6.8,3.4-12.2,7.9-16.3,13.7l-2.7-16.3h-33.5v108.6h40.9v-63.8c0-4.8,1.5-8.8,4.5-12.1,3-3.3,6.9-4.9,11.7-4.9s7.3,1.4,9.5,4.2c2.3,2.8,3.4,6.6,3.4,11.2v65.4h40.9v-63.8c0-4.8,1.5-8.8,4.5-12.1,3-3.3,6.9-4.9,11.7-4.9s7.3,1.4,9.5,4.2c2.3,2.8,3.4,6.6,3.4,11.2v65.4h40.9v-70.4c0-13-3.1-23.1-9.3-30.2-6.2-7-15.4-10.6-27.8-10.6Z"/>
  <path class="cls-3" d="M1046.7,540.6c4.1,0,7.4,3.3,7.4,7.4h0c0,4.1-3.3,7.4-7.4,7.4s-7.4-3.3-7.4-7.4c0-4.1,3.3-7.4,7.4-7.4"/>
  <polygon class="cls-3" points="976.2 570.2 961.4 570.2 961.4 585 946.6 585 946.6 570.2 931.8 570.2 931.8 555.4 946.6 555.4 946.6 540.6 961.4 540.6 961.4 555.4 976.2 555.4 976.2 570.2"/>
  <path class="cls-3" d="M1031.9,570.2c-4.1,0-7.4-3.3-7.4-7.4s3.3-7.4,7.4-7.4,7.4,3.3,7.4,7.4c0,4.1-3.3,7.4-7.4,7.4"/>
  <path class="cls-3" d="M1046.7,585c-4.1,0-7.4-3.3-7.4-7.4h0c0-4.1,3.3-7.4,7.4-7.4s7.4,3.3,7.4,7.4c0,4.1-3.3,7.4-7.4,7.4,0,0,0,0,0,0"/>
  <path class="cls-3" d="M1061.6,570.2c-4.1,0-7.4-3.3-7.4-7.4,0-4.1,3.3-7.4,7.4-7.4,4.1,0,7.4,3.3,7.4,7.4,0,4.1-3.3,7.4-7.4,7.4"/>
</svg>