<?xml version="1.0" encoding="UTF-8"?>
<svg id="icon-0" xmlns="http://www.w3.org/2000/svg" xmlns:svgjs="http://svgjs.dev/svgjs" version="1.1" viewBox="0 0 1309.2 341.3">
  <defs>
    <style>
      .cls-1 {
        fill: #000;
      }

      .cls-1, .cls-2 {
        stroke-width: 0px;
      }

      .cls-2 {
        display: none;
        fill: none;
      }
    </style>
  </defs>
  <g id="tight-bounds">
    <rect class="cls-2" x="-225.7" y="-1079.3" width="1137.4" height="564"/>
  </g>
  <g>
    <g>
      <path class="cls-1" d="M676.8,150.7c-8.6,0-13.4,4.1-14.4,12.2h26.6c0-3.8-1.1-6.7-3.2-8.9-2.2-2.2-5.2-3.3-9-3.3ZM675.7,133.2c13.3,0,23.4,3.1,30.4,9.3,7,6.2,10.5,15.7,10.5,28.6v4.7h-54.4c0,5.2,1.2,9.2,3.5,11.8,2.3,2.7,6,4,11,4s7.9-1,10.1-2.9c2.1-1.9,3.2-4.5,3.2-7.7h26.5c0,8.8-3.3,15.7-10,20.6-6.7,4.9-16.4,7.4-29.3,7.4s-23.9-3.1-31.3-9.4c-7.4-6.3-11.1-15.8-11.1-28.5s3.6-21.9,10.9-28.3c7.2-6.4,17.2-9.6,29.9-9.6ZM597.2,133.2c8.2,0,14.4,2.4,18.5,7.1,4.1,4.7,6.2,11.4,6.2,20.1v47h-27.3v-43.7c0-3.1-.8-5.6-2.3-7.5-1.5-1.9-3.6-2.8-6.4-2.8s-5.8,1.1-7.8,3.3c-2,2.2-3,4.9-3,8.1v42.6h-27.3v-43.7c0-3.1-.8-5.6-2.3-7.5-1.5-1.9-3.6-2.8-6.4-2.8s-5.8,1.1-7.8,3.3c-2,2.2-3,4.9-3,8.1v42.6h-27.3v-72.5h22.4l1.8,10.9c2.7-3.8,6.4-6.9,10.9-9.1,4.5-2.2,9.3-3.4,14.4-3.4,10.9,0,18.2,4.2,22,12.5,2.8-3.8,6.5-6.9,10.9-9.1,4.4-2.2,9.1-3.4,14-3.4ZM455.3,175.8c-7.8,0-13.5.8-17.3,2.5-3.7,1.7-5.5,4-5.5,6.8,0,4.6,3.1,6.9,9.3,6.9s6.7-1,9.4-2.9c2.7-1.9,4.1-4.3,4.1-7.1v-6.2ZM445.2,133.2c11.1,0,20.1,1.8,27.1,5.5,7,3.7,10.4,9.7,10.4,18.1v28.3c0,1.6.4,2.8,1.1,3.8.7,1,1.8,1.5,3.3,1.5h4.9v15.8c-.3.2-1,.5-2.1.9-1.1.4-2.8.8-4.9,1.3-2.1.4-4.5.6-7.3.6-5.3,0-9.7-.8-13.1-2.4-3.4-1.6-5.8-3.8-7.1-6.6-3.5,2.7-7.4,4.9-11.7,6.6-4.3,1.6-9.3,2.5-15.1,2.5-17,0-25.5-6.8-25.5-20.3s1.9-12.4,5.7-16.1c3.8-3.7,9.3-6.2,16.4-7.6,7.1-1.4,16.5-2.1,28-2.1v-3.6c0-2.8-1-5-3-6.5-2-1.5-4.5-2.2-7.6-2.2s-5.3.5-7.4,1.5c-2.1,1-3.1,2.6-3.1,4.8v.5h-26.9c0-.5-.1-1.1-.1-1.9,0-6.9,3.3-12.3,9.8-16.3,6.6-4,15.9-6,28.1-6ZM343.3,207.4c-2.1,0-3.8.6-5.1,1.7-1.3,1.1-2,2.8-2,4.9s.7,3.8,2.1,5.1,3.1,1.9,5.1,1.9h21.4c2,0,3.7-.6,5.2-1.8,1.4-1.2,2.1-2.9,2.1-5s-.7-3.8-2.1-4.9c-1.4-1.2-3.1-1.8-5.2-1.8h-21.4ZM353.8,147.5c-3,0-5.5.8-7.4,2.3-1.9,1.6-2.9,3.8-2.9,6.7s.9,5.3,2.7,6.8c1.8,1.5,4.3,2.3,7.6,2.3s5.9-.8,7.8-2.3c1.9-1.5,2.8-3.8,2.8-6.8s-.9-5.3-2.8-6.8c-1.9-1.5-4.5-2.3-7.8-2.3ZM399.3,121.3c0,5.6-1.4,9.9-4.2,12.9-2.8,3-7,5.3-12.6,6.7,2.7,2,4.7,4.4,6.3,7.1,1.5,2.7,2.3,5.6,2.3,8.6,0,7.7-2.9,13.5-8.7,17.4-5.8,3.9-13.1,5.9-21.8,5.9h-10.4c-5.8,0-8.7,1.3-8.7,4s.6,2.3,1.9,3.1c1.3.8,3.5,1.2,6.7,1.2h24.7c8.1,0,14.1,2.1,18.3,6.3,4.1,4.2,6.2,9.8,6.2,16.9s-1.4,9.7-4.1,13.5c-2.7,3.8-6.5,6.6-11.1,8.5-4.7,1.9-9.7,2.9-15.2,2.9h-40.4c-3.3,0-6.3-.8-9.1-2.3-2.8-1.6-5-3.7-6.7-6.4-1.6-2.7-2.5-5.7-2.5-9s1.1-6.8,3.3-9.7c2.2-2.9,4.9-5.1,8.2-6.5-2.2-1.6-3.9-3.4-5.2-5.6-1.3-2.2-1.9-4.6-1.9-7.1s1.3-6.8,4-9.7c2.7-2.9,6-4.8,9.9-5.8-3.6-2.3-6.4-4.9-8.5-7.9-2.1-3-3.2-6.1-3.2-9.4,0-8.4,3.4-14.4,10.2-18.1,6.8-3.6,15.9-5.4,27.1-5.4s8.9.3,11.9.8c4.5-2.8,7.4-5.4,8.7-7.8,1.3-2.3,2-4,2-5h22.5Z"/>
      <path class="cls-1" d="M1272.7,131.5c9.7,0,17.9,1.9,24.6,5.7,6.7,3.8,10.1,9.7,10.1,17.7h-25.4c0-2.7-1.2-4.5-3.6-5.6-1.6-.9-3.7-1.4-6.2-1.4-6.6,0-9.9,1.6-9.9,4.7s1.1,3,3.4,3.7c2.3.7,6,1.5,11.3,2.3,6.4.9,11.8,2,16.1,3.2,4.3,1.2,8.1,3.4,11.3,6.6,3.2,3.2,4.8,7.6,4.8,13.3,0,9.2-3.5,15.8-10.4,19.8-6.9,3.9-15.9,5.9-27.1,5.9s-12.5-.9-18.1-2.7c-5.7-1.8-10.3-4.5-13.9-8.3-3.6-3.8-5.4-8.5-5.4-14.3h25.4v.5c0,3.1,1.4,5.3,3.9,6.5,2.5,1.2,5.2,1.9,8,1.9,7.6,0,11.4-1.8,11.4-5.4s-1.2-3.2-3.6-4c-2.4-.8-6.3-1.7-11.7-2.6-6.5-1.1-11.8-2.3-16-3.6-4.2-1.3-7.8-3.5-10.9-6.5-3.1-3.1-4.7-7.3-4.7-12.8,0-8.9,3.4-15.2,10.1-19,6.7-3.8,15.5-5.6,26.3-5.6Z"/>
      <path class="cls-1" d="M1217.9,131.3c2.1,0,4,.2,5.6.7,1.6.5,2.5.8,2.5.9v22.9h-8.8c-5.7,0-9.8,1.5-12.3,4.4-2.5,2.9-3.8,7.3-3.8,13v32.3h-27.3v-72.5h22.4l1.8,11c1.6-4.2,4.3-7.4,7.8-9.6,3.6-2.1,7.6-3.2,12.1-3.2Z"/>
      <polygon class="cls-1" points="1022.6 160.9 1045.8 133.1 1077.7 133.1 1050.9 162.4 1078.4 205.6 1047.3 205.6 1032.1 180.8 1022.6 190 1022.6 205.6 995.3 205.6 995.3 105.9 1022.6 105.9 1022.6 160.9"/>
      <rect class="cls-1" x="950.5" y="106.1" width="27.4" height="99.6"/>
      <polygon class="cls-1" points="824.6 205.6 798 205.6 786.7 165.3 786.2 165.3 774.8 205.6 748.1 205.6 721.6 133.1 751 133.1 762 176 762.9 176 774.3 133.1 801.5 133.1 812.5 176 813.5 176 824.6 133.1 851.3 133.1 824.6 205.6"/>
      <path class="cls-1" d="M935.7,188.7c-1.5,0-2.6-.5-3.3-1.5-.7-1-1.1-2.3-1.1-3.8v-28.3c0-8.3-3.5-14.4-10.4-18.1-7-3.7-16-5.5-27.1-5.5s-21.5,2-28.1,6c-6.5,4-9.8,9.5-9.8,16.3s0,1.5.1,1.9h26.9v-.5c0-2.2,1-3.8,3.1-4.8,2.1-1,4.5-1.5,7.4-1.5s5.7.7,7.6,2.2c2,1.5,3,3.6,3,6.5v3.6c-11.5,0-20.9.7-28,2.1-7.1,1.4-12.6,3.9-16.4,7.6-3.8,3.7-5.7,9.1-5.7,16.1,0,13.6,8.5,20.3,25.5,20.3s10.8-.8,15.1-2.5c4.3-1.6,8.2-3.8,11.7-6.6,1.3,2.8,3.6,5.1,7.1,6.6,3.4,1.6,7.8,2.4,13.1,2.4s5.2-.2,7.3-.6c2.1-.4,3.7-.8,4.9-1.3,1.2-.4,1.9-.7,2.1-.9v-15.8h-4.9ZM904,180.2c0,2.8-1.4,5.2-4.1,7.1-2.7,1.9-5.8,2.9-9.4,2.9-6.2,0-9.3-2.3-9.3-6.9s1.8-5.1,5.5-6.8c3.7-1.7,9.5-2.5,17.3-2.5v6.2Z"/>
      <path class="cls-1" d="M1160.6,169.4c0-12.8-3.5-22.3-10.5-28.6-7-6.2-17.2-9.3-30.4-9.3s-22.7,3.2-29.9,9.6c-7.2,6.4-10.9,15.8-10.9,28.3s3.7,22.2,11.1,28.5c7.4,6.3,17.9,9.4,31.3,9.4s22.6-2.5,29.3-7.4c6.7-4.9,10-11.8,10-20.6h-26.5c0,3.2-1.1,5.8-3.2,7.7-2.2,1.9-5.5,2.9-10.1,2.9s-8.7-1.3-11-4c-2.3-2.7-3.5-6.6-3.5-11.8h54.4v-4.7ZM1106.4,161.1c1-8.2,5.8-12.2,14.4-12.2s6.8,1.1,9,3.3c2.1,2.2,3.2,5.2,3.2,8.9h-26.6Z"/>
    </g>
    <g>
      <path class="cls-1" d="M141,250.6c-60.5,0-109.6-49.1-109.6-109.6S80.5,31.4,141,31.4s109.6,49.1,109.6,109.6-49.1,109.6-109.6,109.6M141,0C63.1,0,0,63.1,0,141s141,200.3,141,200.3c0,0,141-93.2,141-200.3S218.9,0,141,0"/>
      <path class="cls-1" d="M200.6,122.9c-1.4-15.4-14.3-27.4-30-27.4h-60.2c-15.7,0-28.6,12-30,27.4,0,0-5.4,47.4-5.4,48.5,0,8.3,6.7,15,15,15s11.3-3.6,13.7-8.8l14.3-22h44.7l14.3,22c2.4,5.2,7.6,8.8,13.7,8.8s15-6.7,15-15-5.3-48.5-5.3-48.5ZM173.3,110.6c1.3,0,2.6.5,3.5,1.5.9.9,1.5,2.2,1.5,3.6,0,2.8-2.2,5-5,5s-5-2.2-5-5,2.2-5,5-5ZM125.5,130.6h-10v10h-10v-10h-10v-10h10v-10h10v10h10v10ZM163.3,130.6c-2.8,0-5-2.3-5-5s2.2-5,5-5,5,2.2,5,5-2.3,5-5,5ZM176.8,139.2c-.9.9-2.2,1.5-3.5,1.5-1.3,0-2.6-.5-3.5-1.5-.9-.9-1.5-2.2-1.5-3.5,0-2.8,2.2-5,5-5s5,2.2,5,5c0,1.3-.5,2.6-1.5,3.5ZM183.3,130.6c-2.8,0-5-2.3-5-5,0-2.8,2.2-5,5-5s5,2.2,5,5c0,2.8-2.2,5-5,5Z"/>
    </g>
  </g>
</svg>