<?xml version="1.0" encoding="UTF-8"?>
<svg id="icon-0" xmlns="http://www.w3.org/2000/svg" xmlns:svgjs="http://svgjs.dev/svgjs" version="1.1" viewBox="0 0 1995.6 989.6">
  <defs>
    <style>
      .cls-1, .cls-2 {
        fill: #626262;
        stroke-width: 0px;
      }

      .cls-2 {
        display: none;
      }
    </style>
  </defs>
  <g id="tight-bounds">
    <g>
      <g id="textblocktransform">
        <path id="text-0" class="cls-1" d="M178,760c0,11.2-2.8,19.8-8.3,25.8-5.6,6-14,10.5-25.1,13.4h0c5.3,4,9.5,8.7,12.5,14.1,3,5.4,4.5,11.1,4.5,17.2h0c0,15.4-5.8,27-17.4,34.8-11.6,7.9-26.1,11.8-43.5,11.8h-20.8c-11.5,0-17.3,2.7-17.3,8h0c0,2.6,1.3,4.6,3.8,6.1,2.6,1.6,7,2.4,13.4,2.4h49.4c16.1,0,28.3,4.2,36.5,12.6,8.2,8.4,12.3,19.7,12.3,33.7h0c0,10.4-2.7,19.4-8.2,26.9-5.5,7.5-12.9,13.2-22.2,17-9.3,3.8-19.5,5.8-30.4,5.8H36.5c-6.6,0-12.7-1.6-18.2-4.7-5.6-3.1-10-7.4-13.3-12.7-3.3-5.4-4.9-11.4-4.9-18h0c0-7.1,2.2-13.6,6.6-19.3,4.4-5.8,9.9-10.1,16.5-13.1h0c-4.4-3.1-7.9-6.9-10.4-11.2-2.6-4.4-3.8-9.1-3.8-14.3h0c0-7.1,2.7-13.6,8-19.4,5.3-5.7,11.9-9.6,19.8-11.6h0c-7.1-4.6-12.8-9.8-17-15.8-4.2-5.9-6.3-12.2-6.3-18.8h0c0-16.8,6.8-28.9,20.5-36.1,13.6-7.2,31.7-10.8,54.2-10.8h0c9.9,0,17.8.5,23.9,1.6h0c9-5.7,14.8-10.8,17.4-15.5,2.6-4.6,4-8,4-10h45ZM87.2,812.4c-6,0-11,1.6-14.8,4.7-3.8,3.1-5.8,7.6-5.8,13.4h0c0,6,1.8,10.6,5.4,13.6,3.5,3,8.6,4.6,15.2,4.6h0c6.6,0,11.8-1.5,15.5-4.6,3.7-3,5.6-7.5,5.6-13.6h0c0-6-1.9-10.6-5.6-13.6-3.8-3-8.9-4.5-15.5-4.5h0ZM66.1,932c-4.2,0-7.6,1.2-10.3,3.5-2.7,2.3-4,5.5-4,9.7h0c0,4.2,1.4,7.6,4.1,10.1,2.7,2.6,6.1,3.8,10.1,3.8h42.8c4,0,7.5-1.2,10.3-3.7,2.8-2.5,4.2-5.8,4.2-10h0c0-4.2-1.4-7.5-4.1-9.9-2.7-2.4-6.2-3.6-10.4-3.6h-42.8ZM269.7,783.8c22.1,0,40.1,3.7,54,11.1,13.9,7.4,20.8,19.5,20.8,36.1h0v56.5c0,3.1.7,5.7,2.2,7.7,1.5,2,3.7,3,6.6,3h9.9v31.5c-.5.4-2,1-4.3,1.8-2.3.8-5.5,1.7-9.7,2.5-4.2.8-9.1,1.2-14.5,1.2h0c-10.6,0-19.3-1.6-26.2-4.8-6.8-3.2-11.5-7.6-14.1-13.3h0c-6.9,5.5-14.7,9.9-23.3,13.2-8.6,3.3-18.7,4.9-30.2,4.9h0c-34,0-51-13.5-51-40.6h0c0-14.1,3.8-24.8,11.4-32.3,7.6-7.4,18.5-12.5,32.8-15.2,14.3-2.7,32.9-4.1,56-4.1h0v-7.1c0-5.7-2-10-5.9-12.9-3.9-2.9-9-4.4-15.2-4.4h0c-5.7,0-10.6,1-14.7,3-4.1,2-6.1,5.2-6.1,9.6h0v1.1h-53.8c-.2-.9-.3-2.2-.3-3.8h0c0-13.7,6.5-24.6,19.6-32.6,13.1-8,31.8-12.1,56.1-12.1h0ZM290,868.9c-15.5,0-27,1.7-34.5,5-7.4,3.4-11.1,7.9-11.1,13.6h0c0,9.1,6.2,13.7,18.7,13.7h0c7.1,0,13.4-1.9,18.8-5.8,5.4-3.8,8.1-8.6,8.1-14.3h0v-12.3ZM573.3,783.8c16.5,0,28.8,4.7,37,14.1,8.2,9.4,12.3,22.8,12.3,40.2h0v93.8h-54.6v-87.2c0-6.2-1.5-11.2-4.6-15-3-3.7-7.2-5.6-12.7-5.6h0c-6.4,0-11.6,2.2-15.6,6.6-4,4.4-6,9.8-6,16.2h0v85h-54.6v-87.2c0-6.2-1.5-11.2-4.6-15-3-3.7-7.2-5.6-12.7-5.6h0c-6.4,0-11.6,2.2-15.6,6.6-4,4.4-6,9.8-6,16.2h0v85h-54.6v-144.8h44.7l3.6,21.7c5.5-7.7,12.7-13.8,21.8-18.3,9.1-4.5,18.6-6.7,28.7-6.7h0c21.8,0,36.4,8.3,43.9,25h0c5.7-7.7,12.9-13.8,21.8-18.3,8.9-4.5,18.1-6.7,27.9-6.7h0ZM730.2,783.8c26.5,0,46.8,6.2,60.8,18.7,14,12.4,21,31.5,21,57.1h0v9.3h-108.6c0,10.4,2.3,18.3,7,23.6,4.6,5.3,12,8,22.1,8h0c9.1,0,15.9-1.9,20.2-5.8,4.3-3.8,6.4-9,6.4-15.4h52.9c0,17.6-6.7,31.3-20,41.1-13.4,9.9-32.8,14.8-58.4,14.8h0c-26.9,0-47.7-6.3-62.5-18.8-14.8-12.5-22.2-31.5-22.2-56.9h0c0-24.9,7.2-43.7,21.7-56.5,14.4-12.8,34.4-19.2,59.8-19.2h0ZM732.4,818.7c-17.2,0-26.8,8.1-28.8,24.4h53.2c0-7.5-2.1-13.4-6.4-17.8-4.3-4.4-10.3-6.6-18-6.6h0ZM1027.5,932h-53.2l-22.5-80.6h-1.1l-22.8,80.6h-53.2l-52.9-144.8h58.7l21.9,85.6h1.9l22.8-85.6h54.3l21.9,85.6h1.9l22.2-85.6h53.2l-53.2,144.8ZM1165.8,783.8c22.1,0,40.1,3.7,54,11.1,13.9,7.4,20.8,19.5,20.8,36.1h0v56.5c0,3.1.7,5.7,2.2,7.7,1.5,2,3.7,3,6.6,3h9.9v31.5c-.5.4-2,1-4.3,1.8-2.3.8-5.5,1.7-9.7,2.5-4.2.8-9.1,1.2-14.5,1.2h0c-10.6,0-19.3-1.6-26.2-4.8-6.8-3.2-11.5-7.6-14.1-13.3h0c-6.9,5.5-14.7,9.9-23.3,13.2-8.6,3.3-18.7,4.9-30.2,4.9h0c-34,0-51-13.5-51-40.6h0c0-14.1,3.8-24.8,11.4-32.3,7.6-7.4,18.5-12.5,32.8-15.2,14.3-2.7,32.9-4.1,56-4.1h0v-7.1c0-5.7-2-10-5.9-12.9-3.9-2.9-9-4.4-15.2-4.4h0c-5.7,0-10.6,1-14.7,3-4.1,2-6.1,5.2-6.1,9.6h0v1.1h-53.8c-.2-.9-.3-2.2-.3-3.8h0c0-13.7,6.5-24.6,19.6-32.6,13.1-8,31.8-12.1,56.1-12.1h0ZM1186.1,868.9c-15.5,0-27,1.7-34.5,5-7.4,3.4-11.1,7.9-11.1,13.6h0c0,9.1,6.2,13.7,18.7,13.7h0c7.1,0,13.4-1.9,18.8-5.8,5.4-3.8,8.1-8.6,8.1-14.3h0v-12.3ZM1333.7,932h-54.6v-198.9h54.6v198.9ZM1423.1,842.5l46.4-55.4h63.6l-53.5,58.4,54.9,86.4h-62l-30.4-49.7-18.9,18.4v31.3h-54.6v-199.2h54.6v109.7ZM1617,783.8c26.5,0,46.8,6.2,60.8,18.7,14,12.4,21,31.5,21,57.1h0v9.3h-108.6c0,10.4,2.3,18.3,7,23.6,4.6,5.3,12,8,22.1,8h0c9.1,0,15.9-1.9,20.2-5.8,4.3-3.8,6.4-9,6.4-15.4h52.9c0,17.6-6.7,31.3-20,41.1-13.4,9.9-32.8,14.8-58.4,14.8h0c-26.9,0-47.7-6.3-62.5-18.8-14.8-12.5-22.2-31.5-22.2-56.9h0c0-24.9,7.2-43.7,21.7-56.5,14.4-12.8,34.4-19.2,59.8-19.2h0ZM1619.2,818.7c-17.2,0-26.8,8.1-28.8,24.4h53.2c0-7.5-2.1-13.4-6.4-17.8-4.3-4.4-10.3-6.6-18-6.6h0ZM1813.1,783.6c4.2,0,8,.5,11.2,1.5,3.3,1,4.9,1.6,4.9,1.8h0v45.8h-17.6c-11.3,0-19.5,2.9-24.6,8.8-5,5.9-7.5,14.5-7.5,26.1h0v64.5h-54.6v-144.8h44.7l3.6,21.9c3.3-8.4,8.5-14.8,15.6-19.1,7.1-4.3,15.2-6.4,24.1-6.4h0ZM1922.6,783.8c19.4,0,35.8,3.8,49.2,11.4,13.5,7.6,20.2,19.4,20.2,35.3h-50.7c0-5.3-2.4-9.1-7.1-11.2h0c-3.3-1.8-7.4-2.7-12.3-2.7h0c-13.2,0-19.8,3.1-19.8,9.3h0c0,3.5,2.3,5.9,6.9,7.4,4.6,1.5,12.1,3,22.5,4.7h0c12.8,1.8,23.5,4,32.1,6.4,8.6,2.5,16.1,6.9,22.5,13.2,6.4,6.3,9.6,15.2,9.6,26.5h0c0,18.5-6.9,31.6-20.7,39.5-13.8,7.9-31.8,11.8-54.2,11.8h0c-12.8,0-24.9-1.8-36.2-5.4-11.3-3.5-20.6-9.1-27.7-16.6-7.1-7.5-10.7-17-10.7-28.5h50.7v1.1c.2,6.2,2.8,10.6,7.8,13,5,2.5,10.4,3.7,16.1,3.7h0c15.2,0,22.8-3.6,22.8-10.7h0c0-3.7-2.4-6.3-7.1-8s-12.5-3.4-23.3-5.2h0c-13-2.2-23.6-4.6-32-7.1-8.3-2.6-15.6-6.9-21.8-13.1-6.2-6.1-9.3-14.6-9.3-25.6h0c0-17.7,6.7-30.4,20.1-37.9,13.5-7.5,31-11.2,52.6-11.2h0Z"/>
      </g>
      <g>
        <path class="cls-1" d="M997.8,0c-153.4,0-277.7,124.3-277.7,277.7s277.7,394.5,277.7,394.5c0,0,277.7-183.6,277.7-394.5S1151.2,0,997.8,0M997.8,493.6c-119.2,0-215.8-96.6-215.8-215.9s96.6-215.9,215.8-215.9,215.9,96.6,215.9,215.9-96.7,215.9-215.9,215.9"/>
        <path class="cls-1" d="M1056.2,188.1h-118.5c-31,0-56.3,23.7-59,54,0,0-10.6,93.3-10.6,95.6,0,16.4,13.3,29.6,29.6,29.6s22.2-7,26.9-17.2l28.2-43.4h88.1l28.2,43.4c4.7,10.2,15,17.2,26.9,17.2s29.6-13.3,29.6-29.6-10.5-95.6-10.5-95.6c-2.7-30.3-28.1-54-59-54M1061.3,217.8c5.5,0,9.9,4.4,9.9,9.9h0c0,5.5-4.4,9.9-9.9,9.9s-9.9-4.4-9.9-9.9c0-5.5,4.4-9.9,9.9-9.9M967.3,257.3h-19.8v19.7h-19.8v-19.7h-19.7v-19.8h19.7v-19.8h19.8v19.8h19.8v19.8ZM1041.6,257.3c-5.5,0-9.9-4.4-9.9-9.9s4.4-9.9,9.9-9.9,9.9,4.4,9.9,9.9c0,5.4-4.4,9.9-9.9,9.9M1061.3,277c-5.4,0-9.9-4.4-9.9-9.9h0c0-5.5,4.4-9.9,9.9-9.9s9.9,4.4,9.9,9.9c0,5.4-4.4,9.9-9.9,9.9,0,0,0,0,0,0M1081.1,257.3c-5.4,0-9.9-4.4-9.9-9.9,0-5.4,4.4-9.9,9.9-9.9,5.5,0,9.9,4.4,9.9,9.9,0,5.5-4.4,9.9-9.9,9.9"/>
      </g>
    </g>
    <rect class="cls-2" x="0" width="1995.7" height="989.6"/>
  </g>
</svg>