<svg xmlns="http://www.w3.org/2000/svg" version="1.1" xmlns:xlink="http://www.w3.org/1999/xlink" xmlns:svgjs="http://svgjs.dev/svgjs" width="2000" height="1500" viewBox="0 0 2000 1500"><rect width="2000" height="1500" fill="#ffffff"></rect><g transform="matrix(0.75,0,0,0.75,249.090909090909,375.5932036169281)"><svg viewBox="0 0 396 197" data-background-color="#ffffff" preserveAspectRatio="xMidYMid meet" height="994" width="2000" xmlns="http://www.w3.org/2000/svg" xmlns:xlink="http://www.w3.org/1999/xlink"><g id="tight-bounds" transform="matrix(1,0,0,1,0.2400000000000091,0.4378120556206113)"><svg viewBox="0 0 395.52 196.12437588875878" height="196.12437588875878" width="395.52"><g><svg viewBox="0 0 395.52 196.12437588875878" height="196.12437588875878" width="395.52"><g><svg viewBox="0 0 395.52 196.12437588875878" height="196.12437588875878" width="395.52"><g transform="matrix(1,0,0,1,0,145.23685423927424)"><svg viewBox="0 0 395.52 50.88752164948454" height="50.88752164948454" width="395.52"><g id="textblocktransform"><svg viewBox="0 0 395.52 50.88752164948454" height="50.88752164948454" width="395.52" id="textblock"><g><svg viewBox="0 0 395.52 50.88752164948454" height="50.88752164948454" width="395.52"><g transform="matrix(1,0,0,1,0,0)"><svg width="395.52" viewBox="0.25 -36.3 363.73 46.8" height="50.88752164948454" data-palette-color="#000000"><path d="M32.7-31.35Q32.7-28.3 31.18-26.65 29.65-25 26.6-24.2L26.6-24.2Q28.05-23.1 28.88-21.63 29.7-20.15 29.7-18.5L29.7-18.5Q29.7-14.3 26.53-12.15 23.35-10 18.6-10L18.6-10 14.8-10Q11.65-10 11.65-8.55L11.65-8.55Q11.65-7.85 12.35-7.43 13.05-7 14.8-7L14.8-7 23.8-7Q28.2-7 30.45-4.7 32.7-2.4 32.7 1.45L32.7 1.45Q32.7 4.3 31.2 6.35 29.7 8.4 27.15 9.45 24.6 10.5 21.6 10.5L21.6 10.5 6.9 10.5Q5.1 10.5 3.58 9.65 2.05 8.8 1.15 7.33 0.25 5.85 0.25 4.05L0.25 4.05Q0.25 2.1 1.45 0.53 2.65-1.05 4.45-1.85L4.45-1.85Q3.25-2.7 2.55-3.9 1.85-5.1 1.85-6.5L1.85-6.5Q1.85-8.45 3.3-10.03 4.75-11.6 6.9-12.15L6.9-12.15Q4.95-13.4 3.8-15.03 2.65-16.65 2.65-18.45L2.65-18.45Q2.65-23.05 6.38-25.03 10.1-27 16.25-27L16.25-27Q18.95-27 20.6-26.7L20.6-26.7Q23.05-28.25 23.78-29.53 24.5-30.8 24.5-31.35L24.5-31.35 32.7-31.35ZM16.15-21.8Q14.5-21.8 13.45-20.95 12.4-20.1 12.4-18.5L12.4-18.5Q12.4-16.85 13.38-16.03 14.35-15.2 16.15-15.2L16.15-15.2Q17.95-15.2 18.98-16.03 20-16.85 20-18.5L20-18.5Q20-20.15 18.98-20.98 17.95-21.8 16.15-21.8L16.15-21.8ZM12.3 0Q11.15 0 10.43 0.63 9.7 1.25 9.7 2.4L9.7 2.4Q9.7 3.55 10.45 4.25 11.2 4.95 12.3 4.95L12.3 4.95 20.1 4.95Q21.2 4.95 21.98 4.28 22.75 3.6 22.75 2.45L22.75 2.45Q22.75 1.3 22 0.65 21.25 0 20.1 0L20.1 0 12.3 0ZM49.4-27Q55.45-27 59.25-24.98 63.05-22.95 63.05-18.4L63.05-18.4 63.05-8.1Q63.05-7.25 63.45-6.7 63.85-6.15 64.65-6.15L64.65-6.15 66.45-6.15 66.45-0.4Q66.3-0.3 65.67-0.08 65.05 0.15 63.9 0.38 62.75 0.6 61.25 0.6L61.25 0.6Q58.35 0.6 56.47-0.28 54.6-1.15 53.9-2.7L53.9-2.7Q52-1.2 49.65-0.3 47.3 0.6 44.15 0.6L44.15 0.6Q34.85 0.6 34.85-6.8L34.85-6.8Q34.85-10.65 36.92-12.68 39-14.7 42.9-15.45 46.8-16.2 53.1-16.2L53.1-16.2 53.1-17.5Q53.1-19.05 52.02-19.85 50.95-20.65 49.25-20.65L49.25-20.65Q47.7-20.65 46.57-20.1 45.45-19.55 45.45-18.35L45.45-18.35 45.45-18.15 35.65-18.15Q35.6-18.4 35.6-18.85L35.6-18.85Q35.6-22.6 39.17-24.8 42.75-27 49.4-27L49.4-27ZM53.1-11.5Q48.85-11.5 46.82-10.58 44.8-9.65 44.8-8.1L44.8-8.1Q44.8-5.6 48.2-5.6L48.2-5.6Q50.15-5.6 51.62-6.65 53.1-7.7 53.1-9.25L53.1-9.25 53.1-11.5ZM104.75-27Q109.25-27 111.5-24.43 113.75-21.85 113.75-17.1L113.75-17.1 113.75 0 103.8 0 103.8-15.9Q103.8-17.6 102.97-18.63 102.15-19.65 100.65-19.65L100.65-19.65Q98.9-19.65 97.8-18.45 96.7-17.25 96.7-15.5L96.7-15.5 96.7 0 86.75 0 86.75-15.9Q86.75-17.6 85.92-18.63 85.1-19.65 83.6-19.65L83.6-19.65Q81.85-19.65 80.75-18.45 79.65-17.25 79.65-15.5L79.65-15.5 79.65 0 69.7 0 69.7-26.4 77.85-26.4 78.5-22.45Q80-24.55 82.47-25.78 84.95-27 87.7-27L87.7-27Q93.65-27 95.7-22.45L95.7-22.45Q97.25-24.55 99.67-25.78 102.09-27 104.75-27L104.75-27ZM133.34-27Q140.59-27 144.42-23.6 148.24-20.2 148.24-13.2L148.24-13.2 148.24-11.5 128.44-11.5Q128.44-8.65 129.72-7.2 130.99-5.75 133.74-5.75L133.74-5.75Q136.24-5.75 137.42-6.8 138.59-7.85 138.59-9.6L138.59-9.6 148.24-9.6Q148.24-4.8 144.59-2.1 140.94 0.6 133.94 0.6L133.94 0.6Q126.59 0.6 122.54-2.83 118.49-6.25 118.49-13.2L118.49-13.2Q118.49-20 122.44-23.5 126.39-27 133.34-27L133.34-27ZM133.74-20.65Q129.04-20.65 128.49-16.2L128.49-16.2 138.19-16.2Q138.19-18.25 137.02-19.45 135.84-20.65 133.74-20.65L133.74-20.65ZM187.54 0L177.84 0 173.74-14.7 173.54-14.7 169.39 0 159.69 0 150.04-26.4 160.74-26.4 164.74-10.8 165.09-10.8 169.24-26.4 179.14-26.4 183.14-10.8 183.49-10.8 187.54-26.4 197.24-26.4 187.54 0ZM212.74-27Q218.79-27 222.59-24.98 226.39-22.95 226.39-18.4L226.39-18.4 226.39-8.1Q226.39-7.25 226.79-6.7 227.19-6.15 227.99-6.15L227.99-6.15 229.79-6.15 229.79-0.4Q229.64-0.3 229.01-0.08 228.39 0.15 227.24 0.38 226.09 0.6 224.59 0.6L224.59 0.6Q221.69 0.6 219.81-0.28 217.94-1.15 217.24-2.7L217.24-2.7Q215.34-1.2 212.99-0.3 210.64 0.6 207.49 0.6L207.49 0.6Q198.19 0.6 198.19-6.8L198.19-6.8Q198.19-10.65 200.26-12.68 202.34-14.7 206.24-15.45 210.14-16.2 216.44-16.2L216.44-16.2 216.44-17.5Q216.44-19.05 215.36-19.85 214.29-20.65 212.59-20.65L212.59-20.65Q211.04-20.65 209.91-20.1 208.79-19.55 208.79-18.35L208.79-18.35 208.79-18.15 198.99-18.15Q198.94-18.4 198.94-18.85L198.94-18.85Q198.94-22.6 202.51-24.8 206.09-27 212.74-27L212.74-27ZM216.44-11.5Q212.19-11.5 210.16-10.58 208.14-9.65 208.14-8.1L208.14-8.1Q208.14-5.6 211.54-5.6L211.54-5.6Q213.49-5.6 214.96-6.65 216.44-7.7 216.44-9.25L216.44-9.25 216.44-11.5ZM243.34 0L233.38 0 233.38-36.25 243.34-36.25 243.34 0ZM259.63-16.3L268.08-26.4 279.68-26.4 269.93-15.75 279.93 0 268.63 0 263.08-9.05 259.63-5.7 259.63 0 249.68 0 249.68-36.3 259.63-36.3 259.63-16.3ZM294.98-27Q302.23-27 306.06-23.6 309.88-20.2 309.88-13.2L309.88-13.2 309.88-11.5 290.08-11.5Q290.08-8.65 291.36-7.2 292.63-5.75 295.38-5.75L295.38-5.75Q297.88-5.75 299.06-6.8 300.23-7.85 300.23-9.6L300.23-9.6 309.88-9.6Q309.88-4.8 306.23-2.1 302.58 0.6 295.58 0.6L295.58 0.6Q288.23 0.6 284.18-2.83 280.13-6.25 280.13-13.2L280.13-13.2Q280.13-20 284.08-23.5 288.03-27 294.98-27L294.98-27ZM295.38-20.65Q290.68-20.65 290.13-16.2L290.13-16.2 299.83-16.2Q299.83-18.25 298.66-19.45 297.48-20.65 295.38-20.65L295.38-20.65ZM330.73-27.05Q331.88-27.05 332.78-26.78 333.68-26.5 333.68-26.45L333.68-26.45 333.68-18.1 330.48-18.1Q327.38-18.1 326-16.5 324.63-14.9 324.63-11.75L324.63-11.75 324.63 0 314.68 0 314.68-26.4 322.83-26.4 323.48-22.4Q324.38-24.7 326.33-25.88 328.28-27.05 330.73-27.05L330.73-27.05ZM350.68-27Q355.98-27 359.65-24.93 363.33-22.85 363.33-18.5L363.33-18.5 354.08-18.5Q354.08-19.95 352.78-20.55L352.78-20.55Q351.88-21.05 350.53-21.05L350.53-21.05Q346.93-21.05 346.93-19.35L346.93-19.35Q346.93-18.4 348.18-18 349.43-17.6 352.28-17.15L352.28-17.15Q355.78-16.65 358.13-15.98 360.48-15.3 362.23-13.58 363.98-11.85 363.98-8.75L363.98-8.75Q363.98-3.7 360.2-1.55 356.43 0.6 350.33 0.6L350.33 0.6Q346.83 0.6 343.73-0.38 340.63-1.35 338.68-3.4 336.73-5.45 336.73-8.6L336.73-8.6 345.98-8.6 345.98-8.4Q346.03-6.7 347.4-6.03 348.78-5.35 350.33-5.35L350.33-5.35Q354.48-5.35 354.48-7.3L354.48-7.3Q354.48-8.3 353.18-8.75 351.88-9.2 348.93-9.7L348.93-9.7Q345.38-10.3 343.1-11 340.83-11.7 339.13-13.38 337.43-15.05 337.43-18.05L337.43-18.05Q337.43-22.9 341.1-24.95 344.78-27 350.68-27L350.68-27Z" opacity="1" transform="matrix(1,0,0,1,0,0)" fill="#000000" class="wordmark-text-0" data-fill-palette-color="primary" id="text-0"></path></svg></g></svg></g></svg></g></svg></g><g transform="matrix(1,0,0,1,142.7186458466474,0)"><svg viewBox="0 0 110.08270830670517 133.22353167835053" height="133.22353167835053" width="110.08270830670517"><g><svg xmlns="http://www.w3.org/2000/svg" xmlns:xlink="http://www.w3.org/1999/xlink" version="1.1" x="0" y="0" viewBox="44.467 0 423.06600000000003 512" enable-background="new 0 0 512 512" xml:space="preserve" height="133.22353167835053" width="110.08270830670517" class="icon-icon-0" data-fill-palette-color="accent" id="icon-0"><g fill="#000000" data-fill-palette-color="accent"><path d="M256 0C139.167 0 44.467 94.708 44.467 211.533 44.467 372.184 256 512 256 512S467.533 372.184 467.533 211.533C467.533 94.708 372.833 0 256 0M256 375.941C165.2 375.941 91.6 302.341 91.6 211.533 91.6 120.733 165.201 47.125 256 47.125S420.417 120.733 420.417 211.533C420.417 302.342 346.8 375.941 256 375.941" fill="#000000" data-fill-palette-color="accent"></path><path d="M300.483 143.3H210.19C186.615 143.3 167.273 161.35 165.24 184.417 165.24 184.417 157.199 255.517 157.199 257.2 157.199 269.667 167.307 279.766 179.774 279.766 188.865 279.766 196.707 274.4 200.282 266.632L221.774 233.583H288.899L310.391 266.632C313.957 274.4 321.791 279.766 330.891 279.766 343.358 279.766 353.466 269.666 353.466 257.2 353.466 255.516 345.441 184.417 345.441 184.417 343.408 161.35 324.042 143.3 300.483 143.3M304.399 165.867A7.524 7.524 0 0 1 311.924 173.401C311.924 177.55 308.557 180.918 304.399 180.918 300.258 180.918 296.891 177.551 296.891 173.401 296.892 169.233 300.259 165.867 304.399 165.867M232.767 195.967H217.717V211H202.658V195.967H187.625V180.917H202.658V165.867H217.717V180.917H232.767zM289.366 195.967C285.208 195.967 281.833 192.584 281.833 188.434S285.208 180.917 289.366 180.917C293.509 180.917 296.891 184.283 296.891 188.434 296.892 192.583 293.509 195.967 289.366 195.967M304.399 211A7.506 7.506 0 0 1 296.891 203.483C296.891 199.333 300.258 195.966 304.399 195.966 308.557 195.966 311.924 199.333 311.924 203.483A7.51 7.51 0 0 1 304.399 211M319.441 195.967C315.292 195.967 311.924 192.584 311.924 188.434A7.52 7.52 0 0 1 319.441 180.917C323.608 180.917 326.974 184.283 326.974 188.434A7.535 7.535 0 0 1 319.441 195.967" fill="#000000" data-fill-palette-color="accent"></path></g></svg></g></svg></g><g></g></svg></g></svg></g><defs></defs></svg><rect width="395.52" height="196.12437588875878" fill="none" stroke="none" visibility="hidden"></rect></g></svg></g></svg>