<?xml version="1.0" encoding="UTF-8"?>
<svg id="Capa_1" data-name="Capa 1" xmlns="http://www.w3.org/2000/svg" xmlns:xlink="http://www.w3.org/1999/xlink" version="1.1" viewBox="0 0 1500 1125">
  <defs>
    <style>
      .cls-1 {
        clip-path: url(#clippath);
      }

      .cls-2 {
        fill: none;
      }

      .cls-2, .cls-3, .cls-4 {
        stroke-width: 0px;
      }

      .cls-5 {
        clip-path: url(#clippath-1);
      }

      .cls-3 {
        fill: #212121;
      }

      .cls-4 {
        fill: #fff;
      }
    </style>
    <clipPath id="clippath">
      <rect class="cls-2" x="188" y="695.1" width="1122.6" height="144.4"/>
    </clipPath>
    <clipPath id="clippath-1">
      <rect class="cls-2" x="593.1" y="282.9" width="312.4" height="378.1"/>
    </clipPath>
  </defs>
  <rect class="cls-3" width="1500" height="1125"/>
  <g class="cls-1">
    <path class="cls-4" d="M1269.5,723.8c10.9,0,20.1,2.1,27.7,6.4,7.6,4.3,11.4,10.9,11.4,19.8h-28.5c0-3-1.3-5.1-4-6.3-1.9-1-4.2-1.5-6.9-1.5-7.4,0-11.1,1.8-11.1,5.2s1.3,3.3,3.9,4.2c2.6.8,6.8,1.7,12.7,2.6,7.2,1,13.2,2.2,18.1,3.6,4.8,1.4,9.1,3.9,12.7,7.4,3.6,3.6,5.4,8.5,5.4,14.9,0,10.4-3.9,17.8-11.7,22.2-7.8,4.4-17.9,6.6-30.5,6.6s-14-1-20.4-3c-6.4-2-11.6-5.1-15.6-9.3-4-4.2-6-9.6-6-16h28.5v.6c.1,3.5,1.6,5.9,4.4,7.3,2.8,1.4,5.9,2.1,9,2.1,8.5,0,12.8-2,12.8-6s-1.3-3.5-4-4.5c-2.7-.9-7-1.9-13.1-2.9-7.3-1.2-13.3-2.6-18-4-4.7-1.4-8.8-3.9-12.3-7.3-3.5-3.4-5.2-8.2-5.2-14.4,0-10,3.8-17.1,11.3-21.3,7.6-4.2,17.4-6.3,29.6-6.3ZM1208,723.7c2.4,0,4.5.3,6.3.8,1.9.6,2.8.9,2.8,1v25.8h-9.9c-6.4,0-11,1.6-13.8,4.9-2.8,3.3-4.2,8.2-4.2,14.7v36.3h-30.7v-81.5h25.2l2,12.3c1.9-4.7,4.8-8.3,8.8-10.7,4-2.4,8.5-3.6,13.6-3.6ZM1098.9,743.4c-9.7,0-15.1,4.6-16.2,13.7h29.9c0-4.2-1.2-7.6-3.6-10-2.4-2.5-5.8-3.7-10.1-3.7ZM1097.6,723.8c14.9,0,26.3,3.5,34.2,10.5,7.9,7,11.8,17.7,11.8,32.1v5.2h-61.1c0,5.9,1.3,10.3,3.9,13.3,2.6,3,6.8,4.5,12.4,4.5s8.9-1.1,11.4-3.2c2.4-2.2,3.6-5,3.6-8.6h29.8c0,9.9-3.8,17.6-11.3,23.1-7.5,5.6-18.5,8.3-32.9,8.3s-26.8-3.5-35.2-10.6c-8.3-7-12.5-17.7-12.5-32s4.1-24.6,12.2-31.8c8.1-7.2,19.3-10.8,33.6-10.8ZM988.5,756.9l26.1-31.2h35.8l-30.1,32.9,30.9,48.6h-34.9l-17.1-27.9-10.6,10.3v17.6h-30.7v-112h30.7v61.7ZM938.3,807.2h-30.7v-111.9h30.7v111.9ZM855.2,771.7c-8.7,0-15.2.9-19.4,2.8-4.2,1.9-6.2,4.5-6.2,7.7,0,5.1,3.5,7.7,10.5,7.7s7.5-1.1,10.6-3.2c3-2.2,4.6-4.8,4.6-8v-6.9ZM843.8,723.8c12.4,0,22.6,2.1,30.4,6.2,7.8,4.2,11.7,10.9,11.7,20.3v31.8c0,1.8.4,3.2,1.2,4.3.8,1.1,2.1,1.7,3.7,1.7h5.6v17.7c-.3.2-1.1.5-2.4,1-1.3.5-3.1.9-5.5,1.4-2.4.4-5.1.7-8.2.7-6,0-10.9-.9-14.8-2.7-3.8-1.8-6.5-4.3-7.9-7.5-3.9,3.1-8.3,5.6-13.1,7.4-4.8,1.9-10.5,2.8-17,2.8-19.1,0-28.7-7.6-28.7-22.8s2.1-14,6.4-18.1c4.3-4.2,10.4-7,18.5-8.6,8-1.5,18.5-2.3,31.5-2.3v-4c0-3.2-1.1-5.6-3.3-7.3-2.2-1.6-5.1-2.5-8.5-2.5s-5.9.6-8.3,1.7c-2.3,1.1-3.5,2.9-3.5,5.4v.6h-30.2c-.1-.5-.2-1.2-.2-2.2,0-7.7,3.7-13.8,11-18.4,7.4-4.5,17.9-6.8,31.6-6.8ZM766.1,807.2h-29.9l-12.7-45.4h-.6l-12.8,45.4h-29.9l-29.8-81.5h33l12.3,48.1h1.1l12.8-48.1h30.6l12.3,48.1h1.1l12.5-48.1h29.9l-29.9,81.5ZM600,743.4c-9.7,0-15.1,4.6-16.2,13.7h29.9c0-4.2-1.2-7.6-3.6-10-2.4-2.5-5.8-3.7-10.1-3.7ZM598.8,723.8c14.9,0,26.3,3.5,34.2,10.5,7.9,7,11.8,17.7,11.8,32.1v5.2h-61.1c0,5.9,1.3,10.3,3.9,13.3,2.6,3,6.8,4.5,12.4,4.5s8.9-1.1,11.4-3.2c2.4-2.2,3.6-5,3.6-8.6h29.8c0,9.9-3.8,17.6-11.3,23.1-7.5,5.6-18.5,8.3-32.9,8.3s-26.8-3.5-35.2-10.6c-8.3-7-12.5-17.7-12.5-32s4.1-24.6,12.2-31.8c8.1-7.2,19.3-10.8,33.6-10.8ZM510.6,723.8c9.3,0,16.2,2.6,20.8,7.9,4.6,5.3,6.9,12.8,6.9,22.6v52.8h-30.7v-49.1c0-3.5-.9-6.3-2.6-8.4-1.7-2.1-4.1-3.1-7.2-3.1s-6.5,1.2-8.8,3.7c-2.3,2.5-3.4,5.5-3.4,9.1v47.8h-30.7v-49.1c0-3.5-.9-6.3-2.6-8.4-1.7-2.1-4.1-3.1-7.2-3.1s-6.5,1.2-8.8,3.7c-2.3,2.5-3.4,5.5-3.4,9.1v47.8h-30.7v-81.5h25.2l2,12.2c3.1-4.3,7.2-7.7,12.2-10.3,5.1-2.5,10.5-3.8,16.1-3.8,12.2,0,20.5,4.7,24.7,14,3.2-4.3,7.3-7.7,12.3-10.3,5-2.5,10.2-3.8,15.7-3.8ZM351.2,771.7c-8.7,0-15.2.9-19.4,2.8-4.2,1.9-6.2,4.5-6.2,7.7,0,5.1,3.5,7.7,10.5,7.7s7.5-1.1,10.6-3.2c3-2.2,4.6-4.8,4.6-8v-6.9ZM339.8,723.8c12.4,0,22.6,2.1,30.4,6.2,7.8,4.2,11.7,10.9,11.7,20.3v31.8c0,1.8.4,3.2,1.2,4.3.8,1.1,2.1,1.7,3.7,1.7h5.6v17.7c-.3.2-1.1.5-2.4,1-1.3.5-3.1.9-5.5,1.4-2.4.4-5.1.7-8.2.7-6,0-10.9-.9-14.8-2.7-3.8-1.8-6.5-4.3-7.9-7.5-3.9,3.1-8.3,5.6-13.1,7.4-4.8,1.9-10.5,2.8-17,2.8-19.1,0-28.7-7.6-28.7-22.8s2.1-14,6.4-18.1c4.3-4.2,10.4-7,18.5-8.6,8-1.5,18.5-2.3,31.5-2.3v-4c0-3.2-1.1-5.6-3.3-7.3-2.2-1.6-5.1-2.5-8.5-2.5s-5.9.6-8.3,1.7c-2.3,1.1-3.5,2.9-3.5,5.4v.6h-30.2c-.1-.5-.2-1.2-.2-2.2,0-7.7,3.7-13.8,11-18.4,7.4-4.5,17.9-6.8,31.6-6.8ZM225.3,807.2c-2.4,0-4.3.6-5.8,1.9-1.5,1.3-2.3,3.1-2.3,5.5s.8,4.3,2.3,5.7,3.4,2.2,5.7,2.2h24.1c2.3,0,4.2-.7,5.8-2.1,1.6-1.4,2.4-3.3,2.4-5.6s-.8-4.2-2.3-5.6c-1.5-1.3-3.5-2-5.9-2h-24.1ZM237.1,739.9c-3.4,0-6.2.9-8.3,2.6-2.2,1.8-3.2,4.3-3.2,7.6s1,5.9,3,7.6c2,1.7,4.8,2.6,8.6,2.6s6.6-.9,8.7-2.6c2.1-1.7,3.1-4.2,3.1-7.6s-1-5.9-3.1-7.7c-2.1-1.7-5-2.5-8.7-2.5ZM288.2,710.4c0,6.3-1.6,11.1-4.7,14.5-3.1,3.4-7.9,5.9-14.1,7.6,3,2.3,5.3,4.9,7,7.9,1.7,3,2.5,6.3,2.5,9.7,0,8.6-3.3,15.2-9.8,19.6-6.5,4.4-14.7,6.6-24.5,6.6h-11.7c-6.5,0-9.7,1.5-9.7,4.5s.7,2.6,2.2,3.5c1.4.9,4,1.3,7.6,1.3h27.8c9.1,0,15.9,2.4,20.5,7.1,4.6,4.7,6.9,11.1,6.9,19s-1.5,10.9-4.6,15.1c-3.1,4.2-7.3,7.4-12.5,9.6s-11,3.2-17.1,3.2h-45.4c-3.7,0-7.1-.9-10.2-2.6-3.1-1.7-5.6-4.1-7.5-7.2-1.9-3-2.8-6.4-2.8-10.1s1.2-7.6,3.7-10.9c2.5-3.2,5.6-5.7,9.3-7.3-2.5-1.8-4.4-3.9-5.9-6.3-1.4-2.5-2.2-5.1-2.2-8s1.5-7.6,4.5-10.9c3-3.2,6.7-5.4,11.1-6.5-4-2.6-7.2-5.5-9.6-8.9-2.4-3.3-3.5-6.9-3.5-10.6,0-9.5,3.8-16.2,11.5-20.3,7.7-4.1,17.8-6.1,30.5-6.1s10,.3,13.4.9c5-3.2,8.3-6.1,9.8-8.7,1.5-2.6,2.2-4.5,2.2-5.6h25.3Z"/>
  </g>
  <g class="cls-5">
    <path class="cls-4" d="M749.3,560.6c-67.1,0-121.4-54.4-121.4-121.4s54.4-121.4,121.4-121.4,121.4,54.4,121.4,121.4-54.4,121.4-121.4,121.4M749.3,282.9c-86.3,0-156.2,69.9-156.2,156.2s156.2,221.9,156.2,221.9c0,0,156.2-103.3,156.2-221.9s-69.9-156.2-156.2-156.2"/>
    <path class="cls-4" d="M796.2,427.7c-3.1,0-5.6-2.5-5.6-5.6,0-3.1,2.5-5.6,5.6-5.6s5.6,2.5,5.6,5.6c0,3.1-2.5,5.6-5.6,5.6M785.1,438.8c-1.5,0-2.9-.6-3.9-1.6-1-1-1.6-2.5-1.6-3.9,0-3.1,2.5-5.6,5.5-5.6s5.6,2.5,5.6,5.6c0,1.5-.6,2.9-1.6,3.9-1,1-2.5,1.6-3.9,1.6M774,427.7c-3.1,0-5.6-2.5-5.6-5.6s2.5-5.6,5.6-5.6,5.6,2.5,5.6,5.6-2.5,5.6-5.6,5.6M732.2,427.7h-11.1v11.1h-11.1v-11.1h-11.1v-11.1h11.1v-11.1h11.1v11.1h11.1v11.1ZM785.1,405.4c1.5,0,2.9.6,3.9,1.6,1,1,1.6,2.5,1.6,3.9,0,3.1-2.5,5.6-5.6,5.6s-5.5-2.5-5.5-5.6,2.5-5.6,5.5-5.6M782.2,388.8h-66.7c-17.4,0-31.7,13.3-33.2,30.4,0,0-5.9,52.5-5.9,53.8,0,9.2,7.5,16.7,16.7,16.7s12.5-4,15.1-9.7l15.9-24.4h49.6l15.9,24.4c2.6,5.7,8.4,9.7,15.1,9.7s16.7-7.5,16.7-16.7-5.9-53.8-5.9-53.8c-1.5-17-15.8-30.4-33.2-30.4"/>
  </g>
</svg>