<?xml version="1.0" encoding="UTF-8"?>
<svg id="icon-0" xmlns="http://www.w3.org/2000/svg" xmlns:svgjs="http://svgjs.dev/svgjs" version="1.1" viewBox="0 0 102 123.5">
  <defs>
    <style>
      .cls-1, .cls-2 {
        fill: #ffc107;
        stroke-width: 0px;
      }

      .cls-2 {
        display: none;
      }
    </style>
  </defs>
  <g id="tight-bounds">
    <g id="textblocktransform">
      <g>
        <path class="cls-1" d="M51,0C22.8,0,0,22.8,0,51s51,72.4,51,72.4c0,0,51-33.7,51-72.4S79.2,0,51,0M51,90.6c-21.9,0-39.6-17.7-39.6-39.6S29.1,11.4,51,11.4s39.6,17.7,39.6,39.6-17.8,39.6-39.6,39.6"/>
        <path class="cls-1" d="M61.7,34.6h-21.8c-5.7,0-10.3,4.4-10.8,9.9,0,0-1.9,17.1-1.9,17.5,0,3,2.4,5.4,5.4,5.4s4.1-1.3,4.9-3.2l5.2-8h16.2l5.2,8c.9,1.9,2.7,3.2,4.9,3.2s5.4-2.4,5.4-5.4-1.9-17.5-1.9-17.5c-.5-5.6-5.2-9.9-10.8-9.9M62.7,40c1,0,1.8.8,1.8,1.8h0c0,1-.8,1.8-1.8,1.8s-1.8-.8-1.8-1.8c0-1,.8-1.8,1.8-1.8M45.4,47.3h-3.6v3.6h-3.6v-3.6h-3.6v-3.6h3.6v-3.6h3.6v3.6h3.6v3.6ZM59.1,47.3c-1,0-1.8-.8-1.8-1.8s.8-1.8,1.8-1.8,1.8.8,1.8,1.8c0,1-.8,1.8-1.8,1.8M62.7,50.9c-1,0-1.8-.8-1.8-1.8h0c0-1,.8-1.8,1.8-1.8s1.8.8,1.8,1.8c0,1-.8,1.8-1.8,1.8,0,0,0,0,0,0M66.3,47.3c-1,0-1.8-.8-1.8-1.8,0-1,.8-1.8,1.8-1.8,1,0,1.8.8,1.8,1.8,0,1-.8,1.8-1.8,1.8"/>
      </g>
    </g>
    <rect class="cls-2" x="0" y="0" width="102" height="123.5"/>
  </g>
</svg>