<?xml version="1.0" encoding="UTF-8"?>
<svg id="icon-0" xmlns="http://www.w3.org/2000/svg" xmlns:svgjs="http://svgjs.dev/svgjs" version="1.1" viewBox="0 0 102 123.5">
  <defs>
    <style>
      .cls-1 {
        fill: #ffc107;
      }

      .cls-1, .cls-2, .cls-3, .cls-4 {
        stroke-width: 0px;
      }

      .cls-2 {
        display: none;
        fill: none;
      }

      .cls-3 {
        fill: #007bff;
      }

      .cls-4 {
        fill: #e83e8c;
      }
    </style>
  </defs>
  <g id="tight-bounds">
    <g id="textblocktransform">
      <g>
        <path class="cls-3" d="M51,0C22.8,0,0,22.8,0,51s51,72.4,51,72.4c0,0,51-33.7,51-72.4S79.2,0,51,0M51,90.6c-21.9,0-39.6-17.7-39.6-39.6S29.1,11.4,51,11.4s39.6,17.7,39.6,39.6-17.8,39.6-39.6,39.6"/>
        <path class="cls-4" d="M61.7,34.6h-21.8c-5.7,0-10.3,4.4-10.8,9.9,0,0-1.9,17.1-1.9,17.5,0,3,2.4,5.4,5.4,5.4s4.1-1.3,4.9-3.2l5.2-8h16.2l5.2,8c.9,1.9,2.7,3.2,4.9,3.2s5.4-2.4,5.4-5.4-1.9-17.5-1.9-17.5c-.5-5.6-5.2-9.9-10.8-9.9"/>
      </g>
    </g>
    <rect class="cls-2" x="0" y="0" width="102" height="123.5"/>
  </g>
  <path class="cls-1" d="M62.7,40c1,0,1.8.8,1.8,1.8h0c0,1-.8,1.8-1.8,1.8s-1.8-.8-1.8-1.8c0-1,.8-1.8,1.8-1.8"/>
  <polygon class="cls-1" points="45.4 47.3 41.8 47.3 41.8 50.9 38.1 50.9 38.1 47.3 34.5 47.3 34.5 43.6 38.1 43.6 38.1 40 41.8 40 41.8 43.6 45.4 43.6 45.4 47.3"/>
  <path class="cls-1" d="M59.1,47.3c-1,0-1.8-.8-1.8-1.8s.8-1.8,1.8-1.8,1.8.8,1.8,1.8c0,1-.8,1.8-1.8,1.8"/>
  <path class="cls-1" d="M62.7,50.9c-1,0-1.8-.8-1.8-1.8h0c0-1,.8-1.8,1.8-1.8s1.8.8,1.8,1.8c0,1-.8,1.8-1.8,1.8,0,0,0,0,0,0"/>
  <path class="cls-1" d="M66.3,47.3c-1,0-1.8-.8-1.8-1.8,0-1,.8-1.8,1.8-1.8,1,0,1.8.8,1.8,1.8,0,1-.8,1.8-1.8,1.8"/>
</svg>